{
.appVersion = "3227";
.formatVersion = 3;
DisplayStrings = (
PQRSTUVWHXYZ
);
axes = (
{
name = "Element Shape";
tag = ELSH;
}
);
customParameters = (
{
name = "Virtual Master";
value = (
{
Axis = "Element Shape";
Location = 0;
}
);
},
{
name = "Virtual Master";
value = (
{
Axis = "Element Shape";
Location = 50;
}
);
},
{
name = "Virtual Master";
value = (
{
Axis = "Element Shape";
Location = 100;
}
);
},
{
name = "Use Typo Metrics";
value = 1;
},
{
name = blueScale;
value = 0.04;
},
{
name = blueShift;
value = 7;
},
{
name = blueFuzz;
value = 1;
},
{
name = "Axis Mappings";
value = {
ELSH = {
0 = 0;
50 = 50;
100 = 100;
};
};
},
{
name = "Variable Font Origin";
value = m01;
}
);
date = "2023-02-21 22:06:01 +0000";
familyName = Danfo;
fontMaster = (
{
axesValues = (
0
);
customParameters = (
{
name = "Axis Location";
value = (
{
Axis = "Element Shape";
Location = 0;
}
);
}
);
guides = (
{
locked = 1;
pos = (57,301);
},
{
locked = 1;
pos = (55,142);
}
);
iconName = Bold;
id = m01;
metricValues = (
{
pos = 900;
},
{
over = 16;
pos = 716;
},
{
pos = 434;
},
{
over = -14;
},
{
pos = -100;
}
);
name = Regular;
stemValues = (
63,
292
);
}
);
glyphs = (
{
color = 5;
glyphname = A;
lastChange = "2023-12-05 23:02:01 +0000";
layers = (
{
anchors = (
{
name = bottom;
pos = (337,0);
},
{
name = ogonek;
pos = (442,0);
},
{
name = top;
pos = (345,716);
}
);
layerId = m01;
shapes = (
{
closed = 1;
nodes = (
(286,0,l),
(286,439,l),
(260,439,ls),
(243,439,o),
(226,450,o),
(226,472,cs),
(226,488,o),
(236,505,o),
(260,505,cs),
(360,505,ls),
(381,505,o),
(394,492,o),
(394,473,cs),
(394,453,o),
(381,439,o),
(360,439,cs),
(344,439,l),
(344,0,l),
(671,0,l),
(671,434,l),
(611,434,o),
(601,451,o),
(564,517,cs),
(452,716,l),
(258,716,l),
(137,514,ls),
(95,445,o),
(77,434,o),
(29,434,c),
(29,0,l)
);
},
{
closed = 1;
nodes = (
(309,647,l),
(357,564,l),
(260,564,l)
);
},
{
alignment = -1;
pos = (29,142);
ref = _part.cut;
},
{
alignment = -1;
pos = (671,142);
ref = _part.cut;
scale = (-1,1);
}
);
width = 700;
},
{
anchors = (
{
name = bottom;
pos = (337,0);
},
{
name = ogonek;
pos = (442,0);
},
{
name = top;
pos = (345,716);
}
);
associatedMasterId = m01;
attr = {
coordinates = (
50
);
};
layerId = "E34EBAE1-603A-4141-87CF-9C05571728AE";
name = "Dec 5, 23 at 18:01";
shapes = (
{
closed = 1;
nodes = (
(286,0,l),
(286,439,l),
(260,439,ls),
(243,439,o),
(226,450,o),
(226,472,cs),
(226,488,o),
(236,505,o),
(260,505,cs),
(360,505,ls),
(381,505,o),
(394,492,o),
(394,473,cs),
(394,453,o),
(381,439,o),
(360,439,cs),
(344,439,l),
(344,0,l),
(671,0,l),
(671,434,l),
(611,434,o),
(601,451,o),
(564,517,cs),
(452,716,l),
(258,716,l),
(137,514,ls),
(95,445,o),
(77,434,o),
(29,434,c),
(29,0,l)
);
},
{
closed = 1;
nodes = (
(309,647,l),
(357,564,l),
(260,564,l)
);
},
{
alignment = -1;
pos = (29,142);
ref = _part.cut;
},
{
alignment = -1;
pos = (671,142);
ref = _part.cut;
scale = (-1,1);
}
);
width = 700;
},
{
anchors = (
{
name = bottom;
pos = (337,0);
},
{
name = ogonek;
pos = (442,0);
},
{
name = top;
pos = (345,716);
}
);
associatedMasterId = m01;
attr = {
coordinates = (
100
);
};
layerId = "4022E871-C63E-41AD-B81B-4E609B160B96";
name = "Dec 5, 23 at 18:01";
shapes = (
{
closed = 1;
nodes = (
(286,0,l),
(286,439,l),
(260,439,ls),
(243,439,o),
(226,450,o),
(226,472,cs),
(226,488,o),
(236,505,o),
(260,505,cs),
(360,505,ls),
(381,505,o),
(394,492,o),
(394,473,cs),
(394,453,o),
(381,439,o),
(360,439,cs),
(344,439,l),
(344,0,l),
(671,0,l),
(671,434,l),
(611,434,o),
(601,451,o),
(564,517,cs),
(452,716,l),
(258,716,l),
(137,514,ls),
(95,445,o),
(77,434,o),
(29,434,c),
(29,0,l)
);
},
{
closed = 1;
nodes = (
(309,647,l),
(357,564,l),
(260,564,l)
);
},
{
alignment = -1;
pos = (29,142);
ref = _part.cut;
},
{
alignment = -1;
pos = (671,142);
ref = _part.cut;
scale = (-1,1);
}
);
width = 700;
}
);
unicode = 65;
},
{
color = 5;
glyphname = B;
lastChange = "2023-12-05 23:11:27 +0000";
layers = (
{
anchors = (
{
name = bottom;
pos = (334,0);
},
{
name = center;
pos = (350,358);
},
{
name = hookjoin;
pos = (46,636);
},
{
name = top;
pos = (339,716);
}
);
layerId = m01;
shapes = (
{
closed = 1;
nodes = (
(442,0,ls),
(551,0,o),
(631,79,o),
(631,186,cs),
(631,375,ls),
(631,518,o),
(542,539,o),
(473,539,c),
(473,544,l),
(491,544,ls),
(528,544,o),
(616,560,o),
(616,628,cs),
(616,712,o),
(517,716,o),
(477,716,cs),
(46,716,l),
(46,636,l),
(96,636,o),
(113,609,o),
(113,569,cs),
(113,495,ls),
(113,455,o),
(96,434,o),
(46,434,c),
(46,0,l)
);
},
{
closed = 1;
nodes = (
(281,505,l),
(396,505,ls),
(424,505,o),
(437,493,o),
(437,472,cs),
(437,450,o),
(421,439,o),
(395,439,cs),
(281,439,l)
);
},
{
closed = 1;
nodes = (
(281,636,l),
(376,636,ls),
(404,636,o),
(417,622,o),
(417,604,cs),
(417,586,o),
(401,575,o),
(375,575,cs),
(281,575,l)
);
},
{
alignment = -1;
pos = (46,142);
ref = _part.cut;
}
);
width = 656;
},
{
anchors = (
{
name = bottom;
pos = (334,0);
},
{
name = center;
pos = (350,358);
},
{
name = hookjoin;
pos = (46,636);
},
{
name = top;
pos = (339,716);
}
);
associatedMasterId = m01;
attr = {
coordinates = (
50
);
};
layerId = "9275F5FC-615B-473A-93FB-1D2DB906A33F";
name = "Dec 5, 23 at 18:02";
shapes = (
{
closed = 1;
nodes = (
(442,0,ls),
(551,0,o),
(631,79,o),
(631,186,cs),
(631,375,ls),
(631,518,o),
(542,539,o),
(473,539,c),
(473,544,l),
(491,544,ls),
(528,544,o),
(606,560,o),
(606,628,cs),
(606,712,o),
(517,716,o),
(477,716,cs),
(46,716,l),
(46,636,l),
(96,636,o),
(113,609,o),
(113,569,cs),
(113,495,ls),
(113,455,o),
(96,434,o),
(46,434,c),
(46,0,l)
);
},
{
closed = 1;
nodes = (
(281,505,l),
(396,505,ls),
(424,505,o),
(437,493,o),
(437,472,cs),
(437,450,o),
(421,439,o),
(395,439,cs),
(281,439,l)
);
},
{
closed = 1;
nodes = (
(281,636,l),
(376,636,ls),
(404,636,o),
(417,622,o),
(417,604,cs),
(417,586,o),
(401,575,o),
(375,575,cs),
(281,575,l)
);
},
{
alignment = -1;
pos = (46,142);
ref = _part.cut;
}
);
width = 656;
},
{
anchors = (
{
name = bottom;
pos = (334,0);
},
{
name = center;
pos = (350,358);
},
{
name = hookjoin;
pos = (46,636);
},
{
name = top;
pos = (339,716);
}
);
associatedMasterId = m01;
attr = {
coordinates = (
100
);
};
layerId = "E65AFEAF-6954-4386-B859-F262867DE1BE";
name = "Dec 5, 23 at 18:02";
shapes = (
{
closed = 1;
nodes = (
(442,0,ls),
(551,0,o),
(631,79,o),
(631,186,cs),
(631,375,ls),
(631,518,o),
(542,539,o),
(473,539,c),
(473,544,l),
(491,544,ls),
(528,544,o),
(606,560,o),
(606,628,cs),
(606,712,o),
(517,716,o),
(477,716,cs),
(46,716,l),
(46,636,l),
(96,636,o),
(113,609,o),
(113,569,cs),
(113,495,ls),
(113,455,o),
(96,434,o),
(46,434,c),
(46,0,l)
);
},
{
closed = 1;
nodes = (
(281,505,l),
(396,505,ls),
(424,505,o),
(437,493,o),
(437,472,cs),
(437,450,o),
(421,439,o),
(395,439,cs),
(281,439,l)
);
},
{
closed = 1;
nodes = (
(281,636,l),
(376,636,ls),
(404,636,o),
(417,622,o),
(417,604,cs),
(417,586,o),
(401,575,o),
(375,575,cs),
(281,575,l)
);
},
{
alignment = -1;
pos = (46,142);
ref = _part.cut;
}
);
width = 656;
}
);
metricLeft = H;
unicode = 66;
},
{
color = 5;
glyphname = C;
lastChange = "2023-12-05 23:05:41 +0000";
layers = (
{
anchors = (
{
name = bottom;
pos = (328,0);
},
{
name = hooktop;
pos = (587,564);
},
{
name = top;
pos = (328,716);
}
);
layerId = m01;
shapes = (
{
closed = 1;
nodes = (
(398,-8,ls),
(507,-8,o),
(587,71,o),
(587,178,cs),
(587,500,l),
(423,500,l),
(423,460,o),
(406,439,o),
(382,439,cs),
(376,439,ls),
(355,439,o),
(334,448,o),
(330,501,c),
(323,501,l),
(319,448,o),
(298,439,o),
(277,439,cs),
(272,439,ls),
(248,439,o),
(231,460,o),
(231,500,cs),
(231,547,ls),
(231,609,o),
(248,636,o),
(298,636,cs),
(356,636,ls),
(406,636,o),
(423,609,o),
(423,564,c),
(587,564,l),
(587,656,o),
(523,722,o),
(436,722,cs),
(218,722,ls),
(109,722,o),
(29,643,o),
(29,536,cs),
(29,178,ls),
(29,71,o),
(109,-8,o),
(218,-8,cs)
);
},
{
alignment = -1;
pos = (29,224);
ref = _part.cut;
},
{
alignment = -1;
pos = (587,243);
ref = _part.cut;
scale = (-1,1);
}
);
width = 616;
},
{
anchors = (
{
name = bottom;
pos = (328,0);
},
{
name = hooktop;
pos = (587,564);
},
{
name = top;
pos = (328,716);
}
);
associatedMasterId = m01;
attr = {
coordinates = (
50
);
};
layerId = "1699F23C-7698-4629-8F7D-4AA7DFD9A00E";
name = "Dec 5, 23 at 18:05";
shapes = (
{
closed = 1;
nodes = (
(398,-8,ls),
(507,-8,o),
(587,71,o),
(587,178,cs),
(587,500,l),
(423,500,l),
(423,460,o),
(406,439,o),
(382,439,cs),
(376,439,ls),
(355,439,o),
(334,448,o),
(330,501,c),
(323,501,l),
(319,448,o),
(298,439,o),
(277,439,cs),
(272,439,ls),
(248,439,o),
(231,460,o),
(231,500,cs),
(231,547,ls),
(231,609,o),
(248,636,o),
(298,636,cs),
(356,636,ls),
(406,636,o),
(423,609,o),
(423,564,c),
(587,564,l),
(587,656,o),
(523,722,o),
(436,722,cs),
(218,722,ls),
(109,722,o),
(29,643,o),
(29,536,cs),
(29,178,ls),
(29,71,o),
(109,-8,o),
(218,-8,cs)
);
},
{
alignment = -1;
pos = (29,224);
ref = _part.cut;
},
{
alignment = -1;
pos = (587,243);
ref = _part.cut;
scale = (-1,1);
}
);
width = 616;
},
{
anchors = (
{
name = bottom;
pos = (328,0);
},
{
name = hooktop;
pos = (587,564);
},
{
name = top;
pos = (328,716);
}
);
associatedMasterId = m01;
attr = {
coordinates = (
100
);
};
layerId = "3C26B748-2102-4B98-942C-4600952AE5CD";
name = "Dec 5, 23 at 18:05";
shapes = (
{
closed = 1;
nodes = (
(398,-8,ls),
(507,-8,o),
(587,71,o),
(587,178,cs),
(587,500,l),
(423,500,l),
(423,460,o),
(406,439,o),
(382,439,cs),
(376,439,ls),
(355,439,o),
(334,448,o),
(330,501,c),
(323,501,l),
(319,448,o),
(298,439,o),
(277,439,cs),
(272,439,ls),
(248,439,o),
(231,460,o),
(231,500,cs),
(231,547,ls),
(231,609,o),
(248,636,o),
(298,636,cs),
(356,636,ls),
(406,636,o),
(423,609,o),
(423,564,c),
(587,564,l),
(587,656,o),
(523,722,o),
(436,722,cs),
(218,722,ls),
(109,722,o),
(29,643,o),
(29,536,cs),
(29,178,ls),
(29,71,o),
(109,-8,o),
(218,-8,cs)
);
},
{
alignment = -1;
pos = (29,224);
ref = _part.cut;
},
{
alignment = -1;
pos = (587,243);
ref = _part.cut;
scale = (-1,1);
}
);
width = 616;
}
);
unicode = 67;
},
{
color = 5;
glyphname = D;
lastChange = "2023-12-05 23:11:27 +0000";
layers = (
{
anchors = (
{
name = bottom;
pos = (320,0);
},
{
name = center;
pos = (320,358);
},
{
name = hookjoin;
pos = (46,636);
},
{
name = top;
pos = (339,716);
}
);
layerId = m01;
shapes = (
{
closed = 1;
nodes = (
(422,0,ls),
(531,0,o),
(611,79,o),
(611,186,cs),
(611,530,ls),
(611,637,o),
(531,716,o),
(422,716,cs),
(46,716,l),
(46,636,l),
(96,636,o),
(113,609,o),
(113,569,cs),
(113,495,ls),
(113,455,o),
(96,434,o),
(46,434,c),
(46,0,l)
);
},
{
closed = 1;
nodes = (
(281,636,l),
(352,636,ls),
(402,636,o),
(419,609,o),
(419,569,cs),
(419,500,ls),
(419,460,o),
(402,439,o),
(352,439,cs),
(281,439,l)
);
},
{
alignment = -1;
pos = (46,166);
ref = _part.cut;
},
{
alignment = -1;
pos = (611,256);
ref = _part.cut;
scale = (-1,1);
}
);
width = 645;
},
{
anchors = (
{
name = bottom;
pos = (320,0);
},
{
name = center;
pos = (320,358);
},
{
name = hookjoin;
pos = (46,636);
},
{
name = top;
pos = (339,716);
}
);
associatedMasterId = m01;
attr = {
coordinates = (
50
);
};
layerId = "6B9F1080-7C12-4523-8F02-AE2D00F77E24";
name = "Dec 5, 23 at 18:06";
shapes = (
{
closed = 1;
nodes = (
(422,0,ls),
(531,0,o),
(611,79,o),
(611,186,cs),
(611,530,ls),
(611,637,o),
(531,716,o),
(422,716,cs),
(46,716,l),
(46,636,l),
(96,636,o),
(113,609,o),
(113,569,cs),
(113,495,ls),
(113,455,o),
(96,434,o),
(46,434,c),
(46,0,l)
);
},
{
closed = 1;
nodes = (
(281,636,l),
(352,636,ls),
(402,636,o),
(419,609,o),
(419,569,cs),
(419,500,ls),
(419,460,o),
(402,439,o),
(352,439,cs),
(281,439,l)
);
},
{
alignment = -1;
pos = (46,166);
ref = _part.cut;
},
{
alignment = -1;
pos = (611,256);
ref = _part.cut;
scale = (-1,1);
}
);
width = 645;
},
{
anchors = (
{
name = bottom;
pos = (320,0);
},
{
name = center;
pos = (320,358);
},
{
name = hookjoin;
pos = (46,636);
},
{
name = top;
pos = (339,716);
}
);
associatedMasterId = m01;
attr = {
coordinates = (
100
);
};
layerId = "9FE6889F-153B-48AE-8E29-364262787A9C";
name = "Dec 5, 23 at 18:06";
shapes = (
{
closed = 1;
nodes = (
(422,0,ls),
(531,0,o),
(611,79,o),
(611,186,cs),
(611,530,ls),
(611,637,o),
(531,716,o),
(422,716,cs),
(46,716,l),
(46,636,l),
(96,636,o),
(113,609,o),
(113,569,cs),
(113,495,ls),
(113,455,o),
(96,434,o),
(46,434,c),
(46,0,l)
);
},
{
closed = 1;
nodes = (
(281,636,l),
(352,636,ls),
(402,636,o),
(419,609,o),
(419,569,cs),
(419,500,ls),
(419,460,o),
(402,439,o),
(352,439,cs),
(281,439,l)
);
},
{
alignment = -1;
pos = (46,166);
ref = _part.cut;
},
{
alignment = -1;
pos = (611,256);
ref = _part.cut;
scale = (-1,1);
}
);
width = 645;
}
);
metricLeft = H;
metricRight = O;
unicode = 68;
},
{
color = 5;
glyphname = E;
lastChange = "2023-12-05 23:13:24 +0000";
layers = (
{
anchors = (
{
name = bottom;
pos = (305,0);
},
{
name = top;
pos = (315,716);
}
);
layerId = m01;
shapes = (
{
closed = 1;
nodes = (
(564,0,l),
(564,500,l),
(474,500,l),
(474,460,o),
(457,439,o),
(407,439,cs),
(280,439,l),
(280,505,l),
(397,505,l),
(397,575,l),
(280,575,l),
(280,636,l),
(401,636,ls),
(451,636,o),
(468,609,o),
(468,569,c),
(558,569,l),
(558,716,l),
(46,716,l),
(46,636,l),
(96,636,o),
(114,604,o),
(114,564,cs),
(114,500,ls),
(114,460,o),
(97,434,o),
(47,434,c),
(47,0,l)
);
},
{
alignment = -1;
pos = (47,142);
ref = _part.cut;
},
{
alignment = -1;
pos = (564,142);
ref = _part.cut;
scale = (-1,1);
}
);
width = 588;
},
{
anchors = (
{
name = bottom;
pos = (305,0);
},
{
name = top;
pos = (315,716);
}
);
associatedMasterId = m01;
attr = {
coordinates = (
50
);
};
layerId = "2D12F863-E6B7-41C2-AD92-92D4D4B2BCBA";
name = "Dec 5, 23 at 18:12";
shapes = (
{
closed = 1;
nodes = (
(564,0,l),
(564,500,l),
(474,500,l),
(474,460,o),
(457,439,o),
(407,439,cs),
(280,439,l),
(280,505,l),
(397,505,l),
(397,575,l),
(280,575,l),
(280,636,l),
(401,636,ls),
(451,636,o),
(468,609,o),
(468,569,c),
(558,569,l),
(558,716,l),
(46,716,l),
(46,636,l),
(96,636,o),
(114,604,o),
(114,564,cs),
(114,500,ls),
(114,460,o),
(97,434,o),
(47,434,c),
(47,0,l)
);
},
{
alignment = -1;
pos = (47,142);
ref = _part.cut;
},
{
alignment = -1;
pos = (564,142);
ref = _part.cut;
scale = (-1,1);
}
);
width = 588;
},
{
anchors = (
{
name = bottom;
pos = (305,0);
},
{
name = top;
pos = (315,716);
}
);
associatedMasterId = m01;
attr = {
coordinates = (
100
);
};
layerId = "993BA088-CF3C-44FB-8ADC-E04E7D948DEF";
name = "Dec 5, 23 at 18:12";
shapes = (
{
closed = 1;
nodes = (
(564,0,l),
(564,500,l),
(474,500,l),
(474,460,o),
(457,439,o),
(407,439,cs),
(280,439,l),
(280,505,l),
(397,505,l),
(397,575,l),
(280,575,l),
(280,636,l),
(401,636,ls),
(451,636,o),
(468,609,o),
(468,569,c),
(558,569,l),
(558,716,l),
(46,716,l),
(46,636,l),
(96,636,o),
(114,604,o),
(114,564,cs),
(114,500,ls),
(114,460,o),
(97,434,o),
(47,434,c),
(47,0,l)
);
},
{
alignment = -1;
pos = (47,142);
ref = _part.cut;
},
{
alignment = -1;
pos = (564,142);
ref = _part.cut;
scale = (-1,1);
}
);
width = 588;
}
);
metricLeft = H;
unicode = 69;
},
{
color = 5;
glyphname = F;
lastChange = "2023-12-05 23:27:01 +0000";
layers = (
{
anchors = (
{
name = bottom;
pos = (342,0);
},
{
name = top;
pos = (304,716);
}
);
layerId = m01;
shapes = (
{
closed = 1;
nodes = (
(461,0,l),
(461,439,l),
(347,439,ls),
(297,439,o),
(280,462,o),
(280,502,c),
(398,502,l),
(398,572,l),
(280,572,l),
(280,636,l),
(398,636,ls),
(448,636,o),
(465,609,o),
(465,569,c),
(555,569,l),
(555,716,l),
(46,716,l),
(46,636,l),
(96,636,o),
(114,604,o),
(114,564,cs),
(114,500,ls),
(114,460,o),
(97,434,o),
(47,434,c),
(47,0,l)
);
},
{
alignment = -1;
pos = (47,142);
ref = _part.cut;
},
{
alignment = -1;
pos = (461,142);
ref = _part.cut;
scale = (-1,1);
}
);
width = 571;
},
{
anchors = (
{
name = bottom;
pos = (342,0);
},
{
name = top;
pos = (304,716);
}
);
associatedMasterId = m01;
attr = {
coordinates = (
50
);
};
layerId = "D9E0ECE1-076A-4FD1-865C-7FA69F0AAFB6";
name = "Dec 5, 23 at 18:14";
shapes = (
{
closed = 1;
nodes = (
(461,0,l),
(461,439,l),
(347,439,ls),
(297,439,o),
(280,462,o),
(280,502,c),
(398,502,l),
(398,572,l),
(280,572,l),
(280,636,l),
(398,636,ls),
(448,636,o),
(465,609,o),
(465,569,c),
(555,569,l),
(555,716,l),
(46,716,l),
(46,636,l),
(96,636,o),
(114,604,o),
(114,564,cs),
(114,500,ls),
(114,460,o),
(97,434,o),
(47,434,c),
(47,0,l)
);
},
{
alignment = -1;
pos = (47,142);
ref = _part.cut;
},
{
alignment = -1;
pos = (461,142);
ref = _part.cut;
scale = (-1,1);
}
);
width = 571;
},
{
anchors = (
{
name = bottom;
pos = (342,0);
},
{
name = top;
pos = (304,716);
}
);
associatedMasterId = m01;
attr = {
coordinates = (
100
);
};
layerId = "C00E57C4-0F5F-40F8-B7C8-B71780D0E9D0";
name = "Dec 5, 23 at 18:14";
shapes = (
{
closed = 1;
nodes = (
(461,0,l),
(461,439,l),
(347,439,ls),
(297,439,o),
(280,462,o),
(280,502,c),
(398,502,l),
(398,572,l),
(280,572,l),
(280,636,l),
(398,636,ls),
(448,636,o),
(465,609,o),
(465,569,c),
(555,569,l),
(555,716,l),
(46,716,l),
(46,636,l),
(96,636,o),
(114,604,o),
(114,564,cs),
(114,500,ls),
(114,460,o),
(97,434,o),
(47,434,c),
(47,0,l)
);
},
{
alignment = -1;
pos = (47,142);
ref = _part.cut;
},
{
alignment = -1;
pos = (461,142);
ref = _part.cut;
scale = (-1,1);
}
);
width = 571;
}
);
metricLeft = H;
unicode = 70;
},
{
color = 5;
glyphname = G;
lastChange = "2023-12-05 23:18:06 +0000";
layers = (
{
anchors = (
{
name = bottom;
pos = (328,0);
},
{
name = hooktop;
pos = (587,564);
},
{
name = top;
pos = (324,716);
}
);
layerId = m01;
shapes = (
{
closed = 1;
nodes = (
(302,-8,ls),
(405,-8,o),
(439,48,o),
(439,110,cs),
(439,172,l),
(482,172,o),
(497,148,o),
(497,113,cs),
(497,0,l),
(587,0,l),
(587,500,l),
(423,500,l),
(423,454,o),
(399,439,o),
(375,439,cs),
(355,439,o),
(334,448,o),
(330,501,c),
(323,501,l),
(319,448,o),
(298,439,o),
(277,439,cs),
(272,439,ls),
(248,439,o),
(231,460,o),
(231,500,cs),
(231,547,ls),
(231,609,o),
(248,636,o),
(298,636,cs),
(356,636,ls),
(406,636,o),
(423,609,o),
(423,564,c),
(587,564,l),
(587,656,o),
(523,722,o),
(436,722,cs),
(218,722,ls),
(109,722,o),
(29,643,o),
(29,536,cs),
(29,178,ls),
(29,71,o),
(109,-8,o),
(218,-8,cs)
);
},
{
alignment = -1;
pos = (29,178);
ref = _part.cut;
},
{
alignment = -1;
pos = (587,142);
ref = _part.cut;
scale = (-1,1);
}
);
width = 616;
},
{
anchors = (
{
name = bottom;
pos = (328,0);
},
{
name = hooktop;
pos = (587,564);
},
{
name = top;
pos = (324,716);
}
);
associatedMasterId = m01;
attr = {
coordinates = (
50
);
};
layerId = "6BBC763A-77E6-4989-B054-0DDB14BA2830";
name = "Dec 5, 23 at 18:17";
shapes = (
{
closed = 1;
nodes = (
(302,-8,ls),
(405,-8,o),
(439,48,o),
(439,110,cs),
(439,172,l),
(482,172,o),
(497,148,o),
(497,113,cs),
(497,0,l),
(587,0,l),
(587,500,l),
(423,500,l),
(423,454,o),
(399,439,o),
(375,439,cs),
(355,439,o),
(334,448,o),
(330,501,c),
(323,501,l),
(319,448,o),
(298,439,o),
(277,439,cs),
(272,439,ls),
(248,439,o),
(231,460,o),
(231,500,cs),
(231,547,ls),
(231,609,o),
(248,636,o),
(298,636,cs),
(356,636,ls),
(406,636,o),
(423,609,o),
(423,564,c),
(587,564,l),
(587,656,o),
(523,722,o),
(436,722,cs),
(218,722,ls),
(109,722,o),
(29,643,o),
(29,536,cs),
(29,178,ls),
(29,71,o),
(109,-8,o),
(218,-8,cs)
);
},
{
alignment = -1;
pos = (29,178);
ref = _part.cut;
},
{
alignment = -1;
pos = (587,142);
ref = _part.cut;
scale = (-1,1);
}
);
width = 616;
},
{
anchors = (
{
name = bottom;
pos = (328,0);
},
{
name = hooktop;
pos = (587,564);
},
{
name = top;
pos = (324,716);
}
);
associatedMasterId = m01;
attr = {
coordinates = (
100
);
};
layerId = "C72992F8-FCEA-483E-B8CD-11A9D155E184";
name = "Dec 5, 23 at 18:17";
shapes = (
{
closed = 1;
nodes = (
(302,-8,ls),
(405,-8,o),
(439,48,o),
(439,110,cs),
(439,172,l),
(482,172,o),
(497,148,o),
(497,113,cs),
(497,0,l),
(587,0,l),
(587,500,l),
(423,500,l),
(423,454,o),
(399,439,o),
(375,439,cs),
(355,439,o),
(334,448,o),
(330,501,c),
(323,501,l),
(319,448,o),
(298,439,o),
(277,439,cs),
(272,439,ls),
(248,439,o),
(231,460,o),
(231,500,cs),
(231,547,ls),
(231,609,o),
(248,636,o),
(298,636,cs),
(356,636,ls),
(406,636,o),
(423,609,o),
(423,564,c),
(587,564,l),
(587,656,o),
(523,722,o),
(436,722,cs),
(218,722,ls),
(109,722,o),
(29,643,o),
(29,536,cs),
(29,178,ls),
(29,71,o),
(109,-8,o),
(218,-8,cs)
);
},
{
alignment = -1;
pos = (29,178);
ref = _part.cut;
},
{
alignment = -1;
pos = (587,142);
ref = _part.cut;
scale = (-1,1);
}
);
width = 616;
}
);
unicode = 71;
},
{
color = 5;
glyphname = H;
lastChange = "2023-12-05 23:11:03 +0000";
layers = (
{
anchors = (
{
name = bottom;
pos = (366,0);
},
{
name = center;
pos = (366,358);
},
{
name = top;
pos = (366,716);
},
{
name = topleft;
pos = (17,716);
}
);
layerId = m01;
shapes = (
{
closed = 1;
nodes = (
(338,0,l),
(338,434,l),
(301,434,o),
(273,457,o),
(273,482,cs),
(273,501,l),
(460,501,l),
(460,482,ls),
(460,457,o),
(432,434,o),
(396,434,c),
(396,0,l),
(688,0,l),
(688,434,l),
(630,434,o),
(620,467,o),
(620,510,cs),
(620,571,ls),
(620,611,o),
(637,636,o),
(688,636,c),
(688,716,l),
(396,716,l),
(396,631,l),
(440,631,o),
(460,610,o),
(460,575,cs),
(460,564,l),
(273,564,l),
(273,575,ls),
(273,610,o),
(293,631,o),
(338,631,c),
(338,716,l),
(46,716,l),
(46,636,l),
(97,636,o),
(113,611,o),
(113,571,cs),
(113,510,ls),
(113,467,o),
(104,434,o),
(46,434,c),
(46,0,l)
);
},
{
alignment = -1;
pos = (46,142);
ref = _part.cut;
},
{
alignment = -1;
pos = (688,142);
ref = _part.cut;
scale = (-1,1);
}
);
width = 734;
},
{
anchors = (
{
name = bottom;
pos = (366,0);
},
{
name = center;
pos = (366,358);
},
{
name = top;
pos = (366,716);
},
{
name = topleft;
pos = (17,716);
}
);
associatedMasterId = m01;
attr = {
coordinates = (
50
);
};
layerId = "83CE7EAA-F1CB-4599-BD0A-2D9D9751CD8F";
name = "Nov 27, 23 at 11:15";
shapes = (
{
closed = 1;
nodes = (
(338,0,l),
(338,434,l),
(301,434,o),
(273,457,o),
(273,482,cs),
(273,501,l),
(460,501,l),
(460,482,ls),
(460,457,o),
(432,434,o),
(396,434,c),
(396,0,l),
(688,0,l),
(688,434,l),
(630,434,o),
(620,467,o),
(620,510,cs),
(620,571,ls),
(620,611,o),
(637,636,o),
(688,636,c),
(688,716,l),
(396,716,l),
(396,631,l),
(440,631,o),
(460,610,o),
(460,575,cs),
(460,564,l),
(273,564,l),
(273,575,ls),
(273,610,o),
(293,631,o),
(338,631,c),
(338,716,l),
(46,716,l),
(46,636,l),
(97,636,o),
(113,611,o),
(113,571,cs),
(113,510,ls),
(113,467,o),
(104,435,o),
(46,435,c),
(46,0,l)
);
},
{
alignment = -1;
pos = (46,142);
ref = _part.cut;
},
{
alignment = -1;
pos = (688,142);
ref = _part.cut;
scale = (-1,1);
}
);
width = 734;
},
{
anchors = (
{
name = bottom;
pos = (366,0);
},
{
name = center;
pos = (366,358);
},
{
name = top;
pos = (366,716);
},
{
name = topleft;
pos = (17,716);
}
);
associatedMasterId = m01;
attr = {
coordinates = (
100
);
};
layerId = "19A85124-AF3B-4CA4-9AE9-A29746DE0E55";
name = "Nov 20, 23 at 14:28";
shapes = (
{
closed = 1;
nodes = (
(338,0,l),
(338,434,l),
(301,434,o),
(273,457,o),
(273,482,cs),
(273,501,l),
(460,501,l),
(460,482,ls),
(460,457,o),
(432,434,o),
(396,434,c),
(396,0,l),
(688,0,l),
(688,434,l),
(630,434,o),
(620,467,o),
(620,510,cs),
(620,571,ls),
(620,611,o),
(637,636,o),
(688,636,c),
(688,716,l),
(396,716,l),
(396,631,l),
(440,631,o),
(460,610,o),
(460,575,cs),
(460,564,l),
(273,564,l),
(273,575,ls),
(273,610,o),
(293,631,o),
(338,631,c),
(338,716,l),
(46,716,l),
(46,636,l),
(97,636,o),
(113,611,o),
(113,571,cs),
(113,510,ls),
(113,467,o),
(104,435,o),
(46,435,c),
(46,0,l)
);
},
{
alignment = -1;
pos = (46,142);
ref = _part.cut;
},
{
alignment = -1;
pos = (688,142);
ref = _part.cut;
scale = (-1,1);
}
);
width = 734;
}
);
unicode = 72;
},
{
color = 5;
glyphname = I;
lastChange = "2023-12-05 23:19:45 +0000";
layers = (
{
anchors = (
{
name = bottom;
pos = (204,0);
},
{
name = ogonek;
pos = (338,0);
},
{
name = top;
pos = (192,716);
},
{
name = topleft;
pos = (18,716);
}
);
layerId = m01;
shapes = (
{
closed = 1;
nodes = (
(338,0,l),
(338,434,l),
(288,434,o),
(271,460,o),
(271,500,cs),
(271,564,ls),
(271,604,o),
(288,636,o),
(338,636,c),
(338,716,l),
(46,716,l),
(46,636,l),
(96,636,o),
(113,609,o),
(113,569,cs),
(113,495,ls),
(113,455,o),
(96,434,o),
(46,434,c),
(46,0,l)
);
},
{
alignment = -1;
pos = (46,142);
ref = _part.cut;
},
{
alignment = -1;
pos = (338,142);
ref = _part.cut;
scale = (-1,1);
}
);
width = 384;
},
{
anchors = (
{
name = bottom;
pos = (204,0);
},
{
name = ogonek;
pos = (338,0);
},
{
name = top;
pos = (192,716);
},
{
name = topleft;
pos = (18,716);
}
);
associatedMasterId = m01;
attr = {
coordinates = (
50
);
};
layerId = "BC6F42E4-0B4A-473C-B8DD-0C1D6BA7554E";
name = "Dec 5, 23 at 18:19";
shapes = (
{
closed = 1;
nodes = (
(338,0,l),
(338,434,l),
(288,434,o),
(271,460,o),
(271,500,cs),
(271,564,ls),
(271,604,o),
(288,636,o),
(338,636,c),
(338,716,l),
(46,716,l),
(46,636,l),
(96,636,o),
(113,609,o),
(113,569,cs),
(113,495,ls),
(113,455,o),
(96,434,o),
(46,434,c),
(46,0,l)
);
},
{
alignment = -1;
pos = (46,142);
ref = _part.cut;
},
{
alignment = -1;
pos = (338,142);
ref = _part.cut;
scale = (-1,1);
}
);
width = 384;
},
{
anchors = (
{
name = bottom;
pos = (204,0);
},
{
name = ogonek;
pos = (338,0);
},
{
name = top;
pos = (192,716);
},
{
name = topleft;
pos = (18,716);
}
);
associatedMasterId = m01;
attr = {
coordinates = (
100
);
};
layerId = "2E957782-8DD6-47A7-85C7-F33B3E9DA57E";
name = "Dec 5, 23 at 18:19";
shapes = (
{
closed = 1;
nodes = (
(338,0,l),
(338,434,l),
(288,434,o),
(271,460,o),
(271,500,cs),
(271,564,ls),
(271,604,o),
(288,636,o),
(338,636,c),
(338,716,l),
(46,716,l),
(46,636,l),
(96,636,o),
(113,609,o),
(113,569,cs),
(113,495,ls),
(113,455,o),
(96,434,o),
(46,434,c),
(46,0,l)
);
},
{
alignment = -1;
pos = (46,142);
ref = _part.cut;
},
{
alignment = -1;
pos = (338,142);
ref = _part.cut;
scale = (-1,1);
}
);
width = 384;
}
);
metricLeft = H;
metricRight = H;
unicode = 73;
},
{
color = 5;
glyphname = J;
lastChange = "2023-12-05 23:21:42 +0000";
layers = (
{
anchors = (
{
name = bottom;
pos = (281,0);
},
{
name = top;
pos = (392,716);
}
);
layerId = m01;
shapes = (
{
closed = 1;
nodes = (
(349,0,ls),
(458,0,o),
(538,79,o),
(538,186,cs),
(538,434,l),
(488,434,o),
(471,460,o),
(471,500,cs),
(471,564,ls),
(471,604,o),
(488,636,o),
(538,636,c),
(538,716,l),
(246,716,l),
(246,636,l),
(296,636,o),
(313,609,o),
(313,569,cs),
(313,500,ls),
(313,460,o),
(296,439,o),
(246,439,cs),
(30,439,l),
(30,0,l)
);
},
{
alignment = -1;
pos = (30,142);
ref = _part.cut;
},
{
alignment = -1;
pos = (538,186);
ref = _part.cut;
scale = (-1,1);
}
);
width = 574;
},
{
anchors = (
{
name = bottom;
pos = (281,0);
},
{
name = top;
pos = (392,716);
}
);
associatedMasterId = m01;
attr = {
coordinates = (
50
);
};
layerId = "7BDE23F5-FBCD-4026-9B83-EDAFD5A15059";
name = "Dec 5, 23 at 18:21";
shapes = (
{
closed = 1;
nodes = (
(349,0,ls),
(458,0,o),
(538,79,o),
(538,186,cs),
(538,434,l),
(488,434,o),
(471,460,o),
(471,500,cs),
(471,564,ls),
(471,604,o),
(488,636,o),
(538,636,c),
(538,716,l),
(246,716,l),
(246,636,l),
(296,636,o),
(313,609,o),
(313,569,cs),
(313,500,ls),
(313,460,o),
(296,439,o),
(246,439,cs),
(30,439,l),
(30,0,l)
);
},
{
alignment = -1;
pos = (30,142);
ref = _part.cut;
},
{
alignment = -1;
pos = (538,186);
ref = _part.cut;
scale = (-1,1);
}
);
width = 574;
},
{
anchors = (
{
name = bottom;
pos = (281,0);
},
{
name = top;
pos = (392,716);
}
);
associatedMasterId = m01;
attr = {
coordinates = (
100
);
};
layerId = "C71AD0B1-38DD-438D-A6CE-7DF18024F1A9";
name = "Dec 5, 23 at 18:21";
shapes = (
{
closed = 1;
nodes = (
(349,0,ls),
(458,0,o),
(538,79,o),
(538,186,cs),
(538,434,l),
(488,434,o),
(471,460,o),
(471,500,cs),
(471,564,ls),
(471,604,o),
(488,636,o),
(538,636,c),
(538,716,l),
(246,716,l),
(246,636,l),
(296,636,o),
(313,609,o),
(313,569,cs),
(313,500,ls),
(313,460,o),
(296,439,o),
(246,439,cs),
(30,439,l),
(30,0,l)
);
},
{
alignment = -1;
pos = (30,142);
ref = _part.cut;
},
{
alignment = -1;
pos = (538,186);
ref = _part.cut;
scale = (-1,1);
}
);
width = 574;
}
);
unicode = 74;
},
{
color = 5;
glyphname = K;
lastChange = "2023-12-05 23:41:12 +0000";
layers = (
{
anchors = (
{
name = bottom;
pos = (348,0);
},
{
name = hookjoin;
pos = (665,636);
},
{
name = top;
pos = (362,716);
}
);
guides = (
{
angle = 90;
pos = (303,525);
}
);
layerId = m01;
shapes = (
{
closed = 1;
nodes = (
(329,0,l),
(329,439,l),
(297,439,o),
(278,449,o),
(270,471,c),
(374,518,l),
(416,467,ls),
(427,454,o),
(417,439,o),
(399,439,cs),
(387,439,l),
(387,0,l),
(685,0,l),
(685,435,l),
(666,435,ls),
(641,435,o),
(630,444,o),
(568,512,cs),
(508,578,l),
(585,613,ls),
(634,634,o),
(639,636,o),
(655,636,cs),
(665,636,l),
(665,716,l),
(378,716,l),
(378,631,l),
(399,631,ls),
(418,631,o),
(424,615,o),
(408,607,cs),
(266,544,l),
(266,564,ls),
(266,608,o),
(287,631,o),
(329,631,c),
(329,716,l),
(46,716,l),
(46,636,l),
(90,636,o),
(113,611,o),
(113,564,cs),
(113,500,ls),
(113,455,o),
(91,434,o),
(46,434,c),
(46,0,l)
);
},
{
alignment = -1;
pos = (46,142);
ref = _part.cut;
},
{
alignment = -1;
pos = (685,142);
ref = _part.cut;
scale = (-1,1);
}
);
width = 714;
},
{
anchors = (
{
name = bottom;
pos = (348,0);
},
{
name = hookjoin;
pos = (665,636);
},
{
name = top;
pos = (362,716);
}
);
associatedMasterId = m01;
attr = {
coordinates = (
50
);
};
guides = (
{
angle = 90;
pos = (303,525);
}
);
layerId = "D4CFCD69-2515-494A-BD0B-4741F1FA8E0C";
name = "Dec 5, 23 at 18:22";
shapes = (
{
closed = 1;
nodes = (
(329,0,l),
(329,439,l),
(297,439,o),
(278,449,o),
(270,471,c),
(374,518,l),
(416,467,ls),
(427,454,o),
(417,439,o),
(399,439,cs),
(387,439,l),
(387,0,l),
(685,0,l),
(685,435,l),
(666,435,ls),
(641,435,o),
(630,444,o),
(568,512,cs),
(508,578,l),
(585,613,ls),
(634,634,o),
(639,636,o),
(655,636,cs),
(665,636,l),
(665,716,l),
(378,716,l),
(378,631,l),
(399,631,ls),
(418,631,o),
(424,615,o),
(408,607,cs),
(266,544,l),
(266,564,ls),
(266,608,o),
(287,631,o),
(329,631,c),
(329,716,l),
(46,716,l),
(46,636,l),
(90,636,o),
(113,611,o),
(113,564,cs),
(113,500,ls),
(113,455,o),
(91,434,o),
(46,434,c),
(46,0,l)
);
},
{
alignment = -1;
pos = (46,142);
ref = _part.cut;
},
{
alignment = -1;
pos = (685,142);
ref = _part.cut;
scale = (-1,1);
}
);
width = 714;
},
{
anchors = (
{
name = bottom;
pos = (348,0);
},
{
name = hookjoin;
pos = (665,636);
},
{
name = top;
pos = (362,716);
}
);
associatedMasterId = m01;
attr = {
coordinates = (
100
);
};
guides = (
{
angle = 90;
pos = (303,525);
}
);
layerId = "1898762F-20B1-4DB5-8249-3A3EC003C524";
name = "Dec 5, 23 at 18:22";
shapes = (
{
closed = 1;
nodes = (
(329,0,l),
(329,439,l),
(297,439,o),
(278,449,o),
(270,471,c),
(374,518,l),
(416,467,ls),
(427,454,o),
(417,439,o),
(399,439,cs),
(387,439,l),
(387,0,l),
(685,0,l),
(685,435,l),
(666,435,ls),
(641,435,o),
(630,444,o),
(568,512,cs),
(508,578,l),
(585,613,ls),
(634,634,o),
(639,636,o),
(655,636,cs),
(665,636,l),
(665,716,l),
(378,716,l),
(378,631,l),
(399,631,ls),
(418,631,o),
(424,615,o),
(408,607,cs),
(266,544,l),
(266,564,ls),
(266,608,o),
(287,631,o),
(329,631,c),
(329,716,l),
(46,716,l),
(46,636,l),
(90,636,o),
(113,611,o),
(113,564,cs),
(113,500,ls),
(113,455,o),
(91,434,o),
(46,434,c),
(46,0,l)
);
},
{
alignment = -1;
pos = (46,142);
ref = _part.cut;
},
{
alignment = -1;
pos = (685,142);
ref = _part.cut;
scale = (-1,1);
}
);
width = 714;
}
);
metricLeft = H;
unicode = 75;
},
{
color = 5;
glyphname = L;
lastChange = "2023-12-05 23:42:11 +0000";
layers = (
{
anchors = (
{
name = bottom;
pos = (315,0);
},
{
name = center;
pos = (364,358);
},
{
name = top;
pos = (184,716);
},
{
name = topright;
pos = (686,716);
}
);
layerId = m01;
shapes = (
{
closed = 1;
nodes = (
(570,0,l),
(570,544,l),
(475,544,l),
(475,495,ls),
(475,452,o),
(455,434,o),
(408,434,cs),
(272,434,l),
(272,564,ls),
(272,611,o),
(295,636,o),
(339,636,c),
(339,716,l),
(46,716,l),
(46,636,l),
(90,636,o),
(114,610,o),
(114,564,cs),
(114,500,ls),
(114,455,o),
(92,434,o),
(47,434,c),
(47,0,l)
);
},
{
alignment = -1;
pos = (47,142);
ref = _part.cut;
},
{
alignment = -1;
pos = (570,142);
ref = _part.cut;
scale = (-1,1);
}
);
width = 601;
},
{
anchors = (
{
name = bottom;
pos = (315,0);
},
{
name = center;
pos = (364,358);
},
{
name = top;
pos = (184,716);
},
{
name = topright;
pos = (686,716);
}
);
associatedMasterId = m01;
attr = {
coordinates = (
50
);
};
layerId = "D7A9AFEA-3932-453F-9146-4E2ABE31B806";
name = "Dec 5, 23 at 18:41";
shapes = (
{
closed = 1;
nodes = (
(570,0,l),
(570,544,l),
(475,544,l),
(475,495,ls),
(475,452,o),
(455,434,o),
(408,434,cs),
(272,434,l),
(272,564,ls),
(272,611,o),
(295,636,o),
(339,636,c),
(339,716,l),
(46,716,l),
(46,636,l),
(90,636,o),
(114,610,o),
(114,564,cs),
(114,500,ls),
(114,455,o),
(92,434,o),
(47,434,c),
(47,0,l)
);
},
{
alignment = -1;
pos = (47,142);
ref = _part.cut;
},
{
alignment = -1;
pos = (570,142);
ref = _part.cut;
scale = (-1,1);
}
);
width = 601;
},
{
anchors = (
{
name = bottom;
pos = (315,0);
},
{
name = center;
pos = (364,358);
},
{
name = top;
pos = (184,716);
},
{
name = topright;
pos = (686,716);
}
);
associatedMasterId = m01;
attr = {
coordinates = (
100
);
};
layerId = "05720EA1-F694-4B8F-A8E1-7BDA929090BF";
name = "Dec 5, 23 at 18:41";
shapes = (
{
closed = 1;
nodes = (
(570,0,l),
(570,544,l),
(475,544,l),
(475,495,ls),
(475,452,o),
(455,434,o),
(408,434,cs),
(272,434,l),
(272,564,ls),
(272,611,o),
(295,636,o),
(339,636,c),
(339,716,l),
(46,716,l),
(46,636,l),
(90,636,o),
(114,610,o),
(114,564,cs),
(114,500,ls),
(114,455,o),
(92,434,o),
(47,434,c),
(47,0,l)
);
},
{
alignment = -1;
pos = (47,142);
ref = _part.cut;
},
{
alignment = -1;
pos = (570,142);
ref = _part.cut;
scale = (-1,1);
}
);
width = 601;
}
);
metricLeft = H;
unicode = 76;
},
{
color = 5;
glyphname = M;
lastChange = "2023-12-05 23:45:28 +0000";
layers = (
{
anchors = (
{
name = bottom;
pos = (396,0);
},
{
name = top;
pos = (380,716);
}
);
layerId = m01;
shapes = (
{
closed = 1;
nodes = (
(356,0,l),
(356,439,l),
(338,439,ls),
(292,439,o),
(271,458,o),
(271,502,cs),
(271,609,l),
(386,477,l),
(498,609,l),
(498,504,ls),
(498,460,o),
(477,439,o),
(431,439,cs),
(414,439,l),
(414,0,l),
(723,-1,l),
(723,434,l),
(676,434,o),
(656,452,o),
(656,494,cs),
(656,568,ls),
(656,613,o),
(678,635,o),
(723,635,c),
(723,716,l),
(489,716,l),
(386,592,l),
(280,716,l),
(46,716,l),
(46,633,l),
(91,633,o),
(113,611,o),
(113,566,cs),
(113,495,ls),
(113,452,o),
(93,434,o),
(46,434,c),
(46,0,l)
);
},
{
alignment = -1;
pos = (46,142);
ref = _part.cut;
},
{
alignment = -1;
pos = (723,142);
ref = _part.cut;
scale = (-1,1);
}
);
width = 769;
},
{
anchors = (
{
name = bottom;
pos = (396,0);
},
{
name = top;
pos = (380,716);
}
);
associatedMasterId = m01;
attr = {
coordinates = (
50
);
};
layerId = "F442BC72-0720-4DEE-9E92-DF217A00951A";
name = "Dec 5, 23 at 18:45";
shapes = (
{
closed = 1;
nodes = (
(356,0,l),
(356,439,l),
(338,439,ls),
(292,439,o),
(271,458,o),
(271,502,cs),
(271,609,l),
(386,477,l),
(498,609,l),
(498,504,ls),
(498,460,o),
(477,439,o),
(431,439,cs),
(414,439,l),
(414,0,l),
(723,-1,l),
(723,434,l),
(676,434,o),
(656,452,o),
(656,494,cs),
(656,568,ls),
(656,613,o),
(678,635,o),
(723,635,c),
(723,716,l),
(489,716,l),
(386,592,l),
(280,716,l),
(46,716,l),
(46,633,l),
(91,633,o),
(113,611,o),
(113,566,cs),
(113,495,ls),
(113,452,o),
(93,434,o),
(46,434,c),
(46,0,l)
);
},
{
alignment = -1;
pos = (46,142);
ref = _part.cut;
},
{
alignment = -1;
pos = (723,142);
ref = _part.cut;
scale = (-1,1);
}
);
width = 769;
},
{
anchors = (
{
name = bottom;
pos = (396,0);
},
{
name = top;
pos = (380,716);
}
);
associatedMasterId = m01;
attr = {
coordinates = (
100
);
};
layerId = "D9E59E14-021E-4CED-9875-2AC8C2102D2B";
name = "Dec 5, 23 at 18:45";
shapes = (
{
closed = 1;
nodes = (
(356,0,l),
(356,439,l),
(338,439,ls),
(292,439,o),
(271,458,o),
(271,502,cs),
(271,609,l),
(386,477,l),
(498,609,l),
(498,504,ls),
(498,460,o),
(477,439,o),
(431,439,cs),
(414,439,l),
(414,0,l),
(723,-1,l),
(723,434,l),
(676,434,o),
(656,452,o),
(656,494,cs),
(656,568,ls),
(656,613,o),
(678,635,o),
(723,635,c),
(723,716,l),
(489,716,l),
(386,592,l),
(280,716,l),
(46,716,l),
(46,633,l),
(91,633,o),
(113,611,o),
(113,566,cs),
(113,495,ls),
(113,452,o),
(93,434,o),
(46,434,c),
(46,0,l)
);
},
{
alignment = -1;
pos = (46,142);
ref = _part.cut;
},
{
alignment = -1;
pos = (723,142);
ref = _part.cut;
scale = (-1,1);
}
);
width = 769;
}
);
metricLeft = H;
metricRight = H;
unicode = 77;
},
{
color = 5;
glyphname = N;
lastChange = "2023-12-05 23:46:31 +0000";
layers = (
{
anchors = (
{
name = bottom;
pos = (364,0);
},
{
name = ogonek;
pos = (707,0);
},
{
name = top;
pos = (361,716);
},
{
name = topleft;
pos = (364,716);
}
);
guides = (
{
pos = (448,445);
}
);
layerId = m01;
shapes = (
{
closed = 1;
nodes = (
(339,0,l),
(339,439,l),
(294,439,o),
(274,458,o),
(274,501,cs),
(274,594,l),
(392,437,l),
(392,0,l),
(684,0,l),
(684,434,l),
(639,434,o),
(617,455,o),
(617,500,cs),
(617,564,ls),
(617,611,o),
(640,636,o),
(684,636,c),
(684,716,l),
(392,716,l),
(392,636,l),
(437,636,o),
(459,614,o),
(459,569,cs),
(459,500,ls),
(459,491,o),
(458,483,o),
(456,476,c),
(274,716,l),
(46,716,l),
(46,636,l),
(93,636,o),
(116,613,o),
(116,567,cs),
(116,500,ls),
(116,450,o),
(99,434,o),
(46,434,c),
(46,0,l)
);
},
{
alignment = -1;
pos = (46,142);
ref = _part.cut;
},
{
alignment = -1;
pos = (684,142);
ref = _part.cut;
scale = (-1,1);
}
);
width = 730;
},
{
anchors = (
{
name = bottom;
pos = (364,0);
},
{
name = ogonek;
pos = (707,0);
},
{
name = top;
pos = (361,716);
},
{
name = topleft;
pos = (364,716);
}
);
associatedMasterId = m01;
attr = {
coordinates = (
50
);
};
guides = (
{
pos = (448,445);
}
);
layerId = "F7BA3C9F-3728-43F1-9791-6344AC0214EC";
name = "Dec 5, 23 at 18:46";
shapes = (
{
closed = 1;
nodes = (
(339,0,l),
(339,439,l),
(294,439,o),
(274,458,o),
(274,501,cs),
(274,594,l),
(392,437,l),
(392,0,l),
(684,0,l),
(684,434,l),
(639,434,o),
(617,455,o),
(617,500,cs),
(617,564,ls),
(617,611,o),
(640,636,o),
(684,636,c),
(684,716,l),
(392,716,l),
(392,636,l),
(437,636,o),
(459,614,o),
(459,569,cs),
(459,500,ls),
(459,491,o),
(458,483,o),
(456,476,c),
(274,716,l),
(46,716,l),
(46,636,l),
(93,636,o),
(116,613,o),
(116,567,cs),
(116,500,ls),
(116,450,o),
(99,434,o),
(46,434,c),
(46,0,l)
);
},
{
alignment = -1;
pos = (46,142);
ref = _part.cut;
},
{
alignment = -1;
pos = (684,142);
ref = _part.cut;
scale = (-1,1);
}
);
width = 730;
},
{
anchors = (
{
name = bottom;
pos = (364,0);
},
{
name = ogonek;
pos = (707,0);
},
{
name = top;
pos = (361,716);
},
{
name = topleft;
pos = (364,716);
}
);
associatedMasterId = m01;
attr = {
coordinates = (
100
);
};
guides = (
{
pos = (448,445);
}
);
layerId = "F6EEBCA2-B273-4BDA-A03C-190A7F672CD2";
name = "Dec 5, 23 at 18:46";
shapes = (
{
closed = 1;
nodes = (
(339,0,l),
(339,439,l),
(294,439,o),
(274,458,o),
(274,501,cs),
(274,594,l),
(392,437,l),
(392,0,l),
(684,0,l),
(684,434,l),
(639,434,o),
(617,455,o),
(617,500,cs),
(617,564,ls),
(617,611,o),
(640,636,o),
(684,636,c),
(684,716,l),
(392,716,l),
(392,636,l),
(437,636,o),
(459,614,o),
(459,569,cs),
(459,500,ls),
(459,491,o),
(458,483,o),
(456,476,c),
(274,716,l),
(46,716,l),
(46,636,l),
(93,636,o),
(116,613,o),
(116,567,cs),
(116,500,ls),
(116,450,o),
(99,434,o),
(46,434,c),
(46,0,l)
);
},
{
alignment = -1;
pos = (46,142);
ref = _part.cut;
},
{
alignment = -1;
pos = (684,142);
ref = _part.cut;
scale = (-1,1);
}
);
width = 730;
}
);
metricLeft = H;
metricRight = H;
unicode = 78;
},
{
color = 5;
glyphname = O;
lastChange = "2023-12-05 22:59:20 +0000";
layers = (
{
layerId = m01;
shapes = (
{
closed = 1;
nodes = (
(475,-2,ls),
(579,-2,o),
(650,72,o),
(650,182,cs),
(650,534,ls),
(650,644,o),
(579,718,o),
(475,718,cs),
(223,718,ls),
(110,718,o),
(34,641,o),
(34,530,cs),
(34,186,ls),
(34,75,o),
(110,-2,o),
(223,-2,cs)
);
},
{
pos = (34,200);
ref = _part.cut;
},
{
closed = 1;
nodes = (
(268,433,o),
(247,455,o),
(247,487,cs),
(247,578,ls),
(247,611,o),
(268,631,o),
(300,631,cs),
(384,631,ls),
(416,631,o),
(437,611,o),
(437,578,cs),
(437,487,ls),
(437,455,o),
(416,433,o),
(397,433,cs),
(372,433,o),
(356,442,o),
(345,490,c),
(339,490,l),
(329,442,o),
(312,433,o),
(287,433,cs)
);
},
{
pos = (650,200);
ref = _part.cut;
scale = (-1,1);
}
);
width = 684;
},
{
associatedMasterId = m01;
attr = {
coordinates = (
50
);
};
layerId = "BACF5381-AA9D-43DB-B83C-CC05595D509C";
name = "{50} Dec 5, 23 at 10:38";
shapes = (
{
closed = 1;
nodes = (
(475,-2,ls),
(579,-2,o),
(650,72,o),
(650,182,cs),
(650,534,ls),
(650,644,o),
(579,718,o),
(475,718,cs),
(223,718,ls),
(110,718,o),
(34,641,o),
(34,530,cs),
(34,186,ls),
(34,75,o),
(110,-2,o),
(223,-2,cs)
);
},
{
pos = (34,200);
ref = _part.cut;
},
{
closed = 1;
nodes = (
(268,433,o),
(247,455,o),
(247,487,cs),
(247,578,ls),
(247,611,o),
(268,631,o),
(300,631,cs),
(384,631,ls),
(416,631,o),
(437,611,o),
(437,578,cs),
(437,487,ls),
(437,455,o),
(416,433,o),
(397,433,cs),
(372,433,o),
(356,442,o),
(345,490,c),
(339,490,l),
(329,442,o),
(312,433,o),
(287,433,cs)
);
},
{
pos = (650,200);
ref = _part.cut;
scale = (-1,1);
}
);
width = 684;
},
{
associatedMasterId = m01;
attr = {
coordinates = (
100
);
};
layerId = "61D477C7-6F70-4CED-B917-07157DFD7254";
name = "Dec 5, 23 at 10:38";
shapes = (
{
closed = 1;
nodes = (
(475,-2,ls),
(579,-2,o),
(650,72,o),
(650,182,cs),
(650,534,ls),
(650,644,o),
(579,718,o),
(475,718,cs),
(223,718,ls),
(110,718,o),
(34,641,o),
(34,530,cs),
(34,186,ls),
(34,75,o),
(110,-2,o),
(223,-2,cs)
);
},
{
pos = (34,200);
ref = _part.cut;
},
{
closed = 1;
nodes = (
(268,433,o),
(247,455,o),
(247,487,cs),
(247,578,ls),
(247,611,o),
(268,631,o),
(300,631,cs),
(384,631,ls),
(416,631,o),
(437,611,o),
(437,578,cs),
(437,487,ls),
(437,455,o),
(416,433,o),
(397,433,cs),
(372,433,o),
(356,442,o),
(345,490,c),
(339,490,l),
(329,442,o),
(312,433,o),
(287,433,cs)
);
},
{
pos = (650,200);
ref = _part.cut;
scale = (-1,1);
}
);
width = 684;
}
);
unicode = 79;
},
{
color = 5;
glyphname = P;
lastChange = "2023-12-05 23:49:30 +0000";
layers = (
{
anchors = (
{
name = bottom;
pos = (353,0);
},
{
name = hookjoin;
pos = (46,636);
},
{
name = top;
pos = (323,713);
}
);
layerId = m01;
shapes = (
{
closed = 1;
nodes = (
(486,0,l),
(486,434,l),
(348,434,ls),
(303,434,o),
(281,455,o),
(281,497,c),
(491,497,ls),
(559,497,o),
(606,541,o),
(606,605,cs),
(606,672,o),
(555,716,o),
(477,716,cs),
(46,716,l),
(46,636,l),
(91,636,o),
(113,614,o),
(113,569,cs),
(113,495,ls),
(113,452,o),
(93,434,o),
(46,434,c),
(46,0,l)
);
},
{
alignment = -1;
pos = (46,142);
ref = _part.cut;
},
{
alignment = -1;
pos = (486,142);
ref = _part.cut;
scale = (-1,1);
},
{
closed = 1;
nodes = (
(281,636,l),
(386,636,ls),
(412,636,o),
(427,623,o),
(427,599,cs),
(427,575,o),
(411,561,o),
(385,561,cs),
(281,561,l)
);
}
);
width = 601;
},
{
anchors = (
{
name = bottom;
pos = (353,0);
},
{
name = hookjoin;
pos = (46,636);
},
{
name = top;
pos = (323,713);
}
);
associatedMasterId = m01;
attr = {
coordinates = (
50
);
};
layerId = "341EA28C-945F-41F3-BC76-3618DDFBD919";
name = "Dec 5, 23 at 18:49";
shapes = (
{
closed = 1;
nodes = (
(486,0,l),
(486,434,l),
(348,434,ls),
(303,434,o),
(281,455,o),
(281,497,c),
(491,497,ls),
(559,497,o),
(606,541,o),
(606,605,cs),
(606,672,o),
(555,716,o),
(477,716,cs),
(46,716,l),
(46,636,l),
(91,636,o),
(113,614,o),
(113,569,cs),
(113,495,ls),
(113,452,o),
(93,434,o),
(46,434,c),
(46,0,l)
);
},
{
alignment = -1;
pos = (46,142);
ref = _part.cut;
},
{
alignment = -1;
pos = (486,142);
ref = _part.cut;
scale = (-1,1);
},
{
closed = 1;
nodes = (
(281,636,l),
(386,636,ls),
(412,636,o),
(427,623,o),
(427,599,cs),
(427,575,o),
(411,561,o),
(385,561,cs),
(281,561,l)
);
}
);
width = 601;
},
{
anchors = (
{
name = bottom;
pos = (353,0);
},
{
name = hookjoin;
pos = (46,636);
},
{
name = top;
pos = (323,713);
}
);
associatedMasterId = m01;
attr = {
coordinates = (
100
);
};
layerId = "E568A201-B6FD-4471-B2BD-55CC2E28DA6D";
name = "Dec 5, 23 at 18:49";
shapes = (
{
closed = 1;
nodes = (
(486,0,l),
(486,434,l),
(348,434,ls),
(303,434,o),
(281,455,o),
(281,497,c),
(491,497,ls),
(559,497,o),
(606,541,o),
(606,605,cs),
(606,672,o),
(555,716,o),
(477,716,cs),
(46,716,l),
(46,636,l),
(91,636,o),
(113,614,o),
(113,569,cs),
(113,495,ls),
(113,452,o),
(93,434,o),
(46,434,c),
(46,0,l)
);
},
{
alignment = -1;
pos = (46,142);
ref = _part.cut;
},
{
alignment = -1;
pos = (486,142);
ref = _part.cut;
scale = (-1,1);
},
{
closed = 1;
nodes = (
(281,636,l),
(386,636,ls),
(412,636,o),
(427,623,o),
(427,599,cs),
(427,575,o),
(411,561,o),
(385,561,cs),
(281,561,l)
);
}
);
width = 601;
}
);
metricLeft = H;
unicode = 80;
},
{
color = 5;
glyphname = Q;
lastChange = "2023-12-06 00:10:33 +0000";
layers = (
{
anchors = (
{
name = bottom;
pos = (329,0);
},
{
name = center;
pos = (339,358);
},
{
name = top;
pos = (339,716);
},
{
name = topleft;
pos = (34,716);
},
{
name = topright;
pos = (630,716);
}
);
layerId = m01;
shapes = (
{
closed = 1;
nodes = (
(499,-140,l),
(499,-60,l),
(428,-60,ls),
(389,-60,o),
(369,-45,o),
(369,-14,cs),
(369,-8,l),
(441,-8,ls),
(550,-8,o),
(630,71,o),
(630,178,cs),
(630,536,ls),
(630,643,o),
(550,722,o),
(441,722,cs),
(223,722,ls),
(114,722,o),
(34,643,o),
(34,536,cs),
(34,178,ls),
(34,71,o),
(114,-8,o),
(223,-8,cs),
(284,-8,l),
(284,-13,ls),
(284,-100,o),
(330,-140,o),
(429,-140,cs)
);
},
{
closed = 1;
nodes = (
(252,439,o),
(236,462,o),
(236,500,cs),
(236,569,ls),
(236,614,o),
(258,636,o),
(303,636,cs),
(361,636,ls),
(406,636,o),
(428,614,o),
(428,569,cs),
(428,500,ls),
(428,462,o),
(412,439,o),
(387,439,cs),
(381,439,ls),
(353,439,o),
(338,459,o),
(335,501,c),
(328,501,l),
(325,459,o),
(310,439,o),
(282,439,cs),
(277,439,ls)
);
},
{
alignment = -1;
pos = (34,178);
ref = _part.cut;
},
{
alignment = -1;
pos = (630,178);
ref = _part.cut;
scale = (-1,1);
}
);
width = 664;
},
{
anchors = (
{
name = bottom;
pos = (329,0);
},
{
name = center;
pos = (339,358);
},
{
name = top;
pos = (339,716);
},
{
name = topleft;
pos = (34,716);
},
{
name = topright;
pos = (630,716);
}
);
associatedMasterId = m01;
attr = {
coordinates = (
50
);
};
layerId = "C713C524-DA30-4EC9-92B4-782E17341E7D";
name = "Dec 5, 23 at 19:10";
shapes = (
{
closed = 1;
nodes = (
(499,-140,l),
(499,-60,l),
(428,-60,ls),
(389,-60,o),
(369,-45,o),
(369,-14,cs),
(369,-8,l),
(441,-8,ls),
(550,-8,o),
(630,71,o),
(630,178,cs),
(630,536,ls),
(630,643,o),
(550,722,o),
(441,722,cs),
(223,722,ls),
(114,722,o),
(34,643,o),
(34,536,cs),
(34,178,ls),
(34,71,o),
(114,-8,o),
(223,-8,cs),
(284,-8,l),
(284,-13,ls),
(284,-100,o),
(330,-140,o),
(429,-140,cs)
);
},
{
closed = 1;
nodes = (
(252,439,o),
(236,462,o),
(236,500,cs),
(236,569,ls),
(236,614,o),
(258,636,o),
(303,636,cs),
(361,636,ls),
(406,636,o),
(428,614,o),
(428,569,cs),
(428,500,ls),
(428,462,o),
(412,439,o),
(387,439,cs),
(381,439,ls),
(353,439,o),
(338,459,o),
(335,501,c),
(328,501,l),
(325,459,o),
(310,439,o),
(282,439,cs),
(277,439,ls)
);
},
{
alignment = -1;
pos = (34,178);
ref = _part.cut;
},
{
alignment = -1;
pos = (630,178);
ref = _part.cut;
scale = (-1,1);
}
);
width = 664;
},
{
anchors = (
{
name = bottom;
pos = (329,0);
},
{
name = center;
pos = (339,358);
},
{
name = top;
pos = (339,716);
},
{
name = topleft;
pos = (34,716);
},
{
name = topright;
pos = (630,716);
}
);
associatedMasterId = m01;
attr = {
coordinates = (
100
);
};
layerId = "C2FFBA79-6E2D-4C6C-8745-D47EA9F44683";
name = "Dec 5, 23 at 19:10";
shapes = (
{
closed = 1;
nodes = (
(499,-140,l),
(499,-60,l),
(428,-60,ls),
(389,-60,o),
(369,-45,o),
(369,-14,cs),
(369,-8,l),
(441,-8,ls),
(550,-8,o),
(630,71,o),
(630,178,cs),
(630,536,ls),
(630,643,o),
(550,722,o),
(441,722,cs),
(223,722,ls),
(114,722,o),
(34,643,o),
(34,536,cs),
(34,178,ls),
(34,71,o),
(114,-8,o),
(223,-8,cs),
(284,-8,l),
(284,-13,ls),
(284,-100,o),
(330,-140,o),
(429,-140,cs)
);
},
{
closed = 1;
nodes = (
(252,439,o),
(236,462,o),
(236,500,cs),
(236,569,ls),
(236,614,o),
(258,636,o),
(303,636,cs),
(361,636,ls),
(406,636,o),
(428,614,o),
(428,569,cs),
(428,500,ls),
(428,462,o),
(412,439,o),
(387,439,cs),
(381,439,ls),
(353,439,o),
(338,459,o),
(335,501,c),
(328,501,l),
(325,459,o),
(310,439,o),
(282,439,cs),
(277,439,ls)
);
},
{
alignment = -1;
pos = (34,178);
ref = _part.cut;
},
{
alignment = -1;
pos = (630,178);
ref = _part.cut;
scale = (-1,1);
}
);
width = 664;
}
);
metricLeft = O;
metricRight = O;
unicode = 81;
},
{
color = 5;
glyphname = R;
lastChange = "2023-12-06 00:14:50 +0000";
layers = (
{
anchors = (
{
name = bottom;
pos = (368,0);
},
{
name = top;
pos = (328,716);
}
);
background = {
shapes = (
{
closed = 1;
nodes = (
(688,-8,l),
(688,434,l),
(624,434,o),
(613,465,o),
(591,493,cs),
(572,517,o),
(546,539,o),
(473,539,c),
(473,544,l),
(491,544,ls),
(528,544,o),
(606,560,o),
(606,628,cs),
(606,712,o),
(517,716,o),
(477,716,cs),
(46,716,l),
(46,636,l),
(96,636,o),
(113,609,o),
(113,569,cs),
(113,495,ls),
(113,455,o),
(96,434,o),
(46,434,c),
(46,0,l),
(339,0,l),
(339,439,l),
(288,439,o),
(271,460,o),
(271,500,cs),
(271,507,l),
(331,507,ls),
(376,507,o),
(396,478,o),
(396,434,cs),
(397,117,ls),
(397,44,o),
(430,-8,o),
(544,-8,cs)
);
},
{
closed = 1;
nodes = (
(271,636,l),
(376,636,ls),
(404,636,o),
(417,622,o),
(417,604,cs),
(417,582,o),
(401,571,o),
(375,571,cs),
(271,571,l)
);
}
);
};
layerId = m01;
shapes = (
{
closed = 1;
nodes = (
(688,-8,l),
(688,434,l),
(644,434,o),
(631,442,o),
(591,493,cs),
(565,526,o),
(531,539,o),
(473,539,c),
(473,544,l),
(491,544,ls),
(555,544,o),
(606,578,o),
(606,631,cs),
(606,682,o),
(560,716,o),
(477,716,cs),
(46,716,l),
(46,636,l),
(91,636,o),
(113,614,o),
(113,569,cs),
(113,495,ls),
(113,452,o),
(93,434,o),
(46,434,c),
(46,0,l),
(339,0,l),
(339,439,l),
(291,439,o),
(271,457,o),
(271,500,cs),
(271,507,l),
(331,507,ls),
(373,507,o),
(396,481,o),
(396,434,cs),
(397,117,ls),
(397,32,o),
(444,-8,o),
(544,-8,cs)
);
},
{
closed = 1;
nodes = (
(271,636,l),
(376,636,ls),
(402,636,o),
(417,624,o),
(417,604,cs),
(417,583,o),
(402,571,o),
(375,571,cs),
(271,571,l)
);
},
{
alignment = -1;
pos = (46,142);
ref = _part.cut;
},
{
alignment = -1;
pos = (688,142);
ref = _part.cut;
scale = (-1,1);
}
);
width = 716;
},
{
anchors = (
{
name = bottom;
pos = (368,0);
},
{
name = top;
pos = (328,716);
}
);
associatedMasterId = m01;
attr = {
coordinates = (
50
);
};
background = {
shapes = (
{
closed = 1;
nodes = (
(688,-8,l),
(688,434,l),
(624,434,o),
(613,465,o),
(591,493,cs),
(572,517,o),
(546,539,o),
(473,539,c),
(473,544,l),
(491,544,ls),
(528,544,o),
(606,560,o),
(606,628,cs),
(606,712,o),
(517,716,o),
(477,716,cs),
(46,716,l),
(46,636,l),
(96,636,o),
(113,609,o),
(113,569,cs),
(113,495,ls),
(113,455,o),
(96,434,o),
(46,434,c),
(46,0,l),
(339,0,l),
(339,439,l),
(288,439,o),
(271,460,o),
(271,500,cs),
(271,507,l),
(331,507,ls),
(376,507,o),
(396,478,o),
(396,434,cs),
(397,117,ls),
(397,44,o),
(430,-8,o),
(544,-8,cs)
);
},
{
closed = 1;
nodes = (
(271,636,l),
(376,636,ls),
(404,636,o),
(417,622,o),
(417,604,cs),
(417,582,o),
(401,571,o),
(375,571,cs),
(271,571,l)
);
}
);
};
layerId = "510C8A47-96D6-4153-88F1-68EDAC448743";
name = "Dec 5, 23 at 19:13";
shapes = (
{
closed = 1;
nodes = (
(688,-8,l),
(688,434,l),
(644,434,o),
(631,442,o),
(591,493,cs),
(565,526,o),
(531,539,o),
(473,539,c),
(473,544,l),
(491,544,ls),
(555,544,o),
(606,578,o),
(606,631,cs),
(606,682,o),
(560,716,o),
(477,716,cs),
(46,716,l),
(46,636,l),
(91,636,o),
(113,614,o),
(113,569,cs),
(113,495,ls),
(113,452,o),
(93,434,o),
(46,434,c),
(46,0,l),
(339,0,l),
(339,439,l),
(291,439,o),
(271,457,o),
(271,500,cs),
(271,507,l),
(331,507,ls),
(373,507,o),
(396,481,o),
(396,434,cs),
(397,117,ls),
(397,32,o),
(444,-8,o),
(544,-8,cs)
);
},
{
closed = 1;
nodes = (
(271,636,l),
(376,636,ls),
(402,636,o),
(417,624,o),
(417,604,cs),
(417,583,o),
(402,571,o),
(375,571,cs),
(271,571,l)
);
},
{
alignment = -1;
pos = (46,142);
ref = _part.cut;
},
{
alignment = -1;
pos = (688,142);
ref = _part.cut;
scale = (-1,1);
}
);
width = 716;
},
{
anchors = (
{
name = bottom;
pos = (368,0);
},
{
name = top;
pos = (328,716);
}
);
associatedMasterId = m01;
attr = {
coordinates = (
100
);
};
background = {
shapes = (
{
closed = 1;
nodes = (
(688,-8,l),
(688,434,l),
(624,434,o),
(613,465,o),
(591,493,cs),
(572,517,o),
(546,539,o),
(473,539,c),
(473,544,l),
(491,544,ls),
(528,544,o),
(606,560,o),
(606,628,cs),
(606,712,o),
(517,716,o),
(477,716,cs),
(46,716,l),
(46,636,l),
(96,636,o),
(113,609,o),
(113,569,cs),
(113,495,ls),
(113,455,o),
(96,434,o),
(46,434,c),
(46,0,l),
(339,0,l),
(339,439,l),
(288,439,o),
(271,460,o),
(271,500,cs),
(271,507,l),
(331,507,ls),
(376,507,o),
(396,478,o),
(396,434,cs),
(397,117,ls),
(397,44,o),
(430,-8,o),
(544,-8,cs)
);
},
{
closed = 1;
nodes = (
(271,636,l),
(376,636,ls),
(404,636,o),
(417,622,o),
(417,604,cs),
(417,582,o),
(401,571,o),
(375,571,cs),
(271,571,l)
);
}
);
};
layerId = "7F2FB5BC-BAE8-47F0-9ACD-1A09D225D2A6";
name = "Dec 5, 23 at 19:13";
shapes = (
{
closed = 1;
nodes = (
(688,-8,l),
(688,434,l),
(644,434,o),
(631,442,o),
(591,493,cs),
(565,526,o),
(531,539,o),
(473,539,c),
(473,544,l),
(491,544,ls),
(555,544,o),
(606,578,o),
(606,631,cs),
(606,682,o),
(560,716,o),
(477,716,cs),
(46,716,l),
(46,636,l),
(91,636,o),
(113,614,o),
(113,569,cs),
(113,495,ls),
(113,452,o),
(93,434,o),
(46,434,c),
(46,0,l),
(339,0,l),
(339,439,l),
(291,439,o),
(271,457,o),
(271,500,cs),
(271,507,l),
(331,507,ls),
(373,507,o),
(396,481,o),
(396,434,cs),
(397,117,ls),
(397,32,o),
(444,-8,o),
(544,-8,cs)
);
},
{
closed = 1;
nodes = (
(271,636,l),
(376,636,ls),
(402,636,o),
(417,624,o),
(417,604,cs),
(417,583,o),
(402,571,o),
(375,571,cs),
(271,571,l)
);
},
{
alignment = -1;
pos = (46,142);
ref = _part.cut;
},
{
alignment = -1;
pos = (688,142);
ref = _part.cut;
scale = (-1,1);
}
);
width = 716;
}
);
metricLeft = H;
unicode = 82;
},
{
color = 5;
glyphname = S;
lastChange = "2023-12-06 00:16:51 +0000";
layers = (
{
anchors = (
{
name = bottom;
pos = (322,0);
},
{
name = top;
pos = (292,716);
}
);
layerId = m01;
shapes = (
{
closed = 1;
nodes = (
(406,0,ls),
(515,0,o),
(595,77,o),
(595,184,cs),
(595,356,ls),
(595,499,o),
(524,555,o),
(338,561,cs),
(274,563,ls),
(234,564,o),
(217,575,o),
(217,599,cs),
(217,624,o),
(235,636,o),
(271,636,cs),
(319,636,ls),
(362,636,o),
(386,620,o),
(386,591,c),
(560,591,l),
(560,667,o),
(504,716,o),
(419,716,cs),
(204,716,ls),
(87,716,o),
(33,682,o),
(33,608,cs),
(33,542,o),
(78,503,o),
(160,499,cs),
(349,490,ls),
(385,488,o),
(397,481,o),
(397,463,cs),
(397,443,o),
(382,434,o),
(349,434,cs),
(30,434,l),
(30,0,l)
);
},
{
alignment = -1;
pos = (30,142);
ref = _part.cut;
}
);
width = 625;
},
{
anchors = (
{
name = bottom;
pos = (322,0);
},
{
name = top;
pos = (292,716);
}
);
associatedMasterId = m01;
attr = {
coordinates = (
50
);
};
layerId = "F0BE0368-B193-4C76-82E1-997ED5A863E6";
name = "Dec 5, 23 at 19:16";
shapes = (
{
closed = 1;
nodes = (
(406,0,ls),
(515,0,o),
(595,77,o),
(595,184,cs),
(595,356,ls),
(595,499,o),
(524,555,o),
(338,561,cs),
(274,563,ls),
(234,564,o),
(217,575,o),
(217,599,cs),
(217,624,o),
(235,636,o),
(271,636,cs),
(319,636,ls),
(362,636,o),
(386,620,o),
(386,591,c),
(560,591,l),
(560,667,o),
(504,716,o),
(419,716,cs),
(204,716,ls),
(87,716,o),
(33,682,o),
(33,608,cs),
(33,542,o),
(78,503,o),
(160,499,cs),
(349,490,ls),
(385,488,o),
(397,481,o),
(397,463,cs),
(397,443,o),
(382,434,o),
(349,434,cs),
(30,434,l),
(30,0,l)
);
},
{
alignment = -1;
pos = (30,142);
ref = _part.cut;
}
);
width = 625;
},
{
anchors = (
{
name = bottom;
pos = (322,0);
},
{
name = top;
pos = (292,716);
}
);
associatedMasterId = m01;
attr = {
coordinates = (
100
);
};
layerId = "8FFD5BB3-C2B4-46B2-A2AF-87BCA755E27F";
name = "Dec 5, 23 at 19:16";
shapes = (
{
closed = 1;
nodes = (
(406,0,ls),
(515,0,o),
(595,77,o),
(595,184,cs),
(595,356,ls),
(595,499,o),
(524,555,o),
(338,561,cs),
(274,563,ls),
(234,564,o),
(217,575,o),
(217,599,cs),
(217,624,o),
(235,636,o),
(271,636,cs),
(319,636,ls),
(362,636,o),
(386,620,o),
(386,591,c),
(560,591,l),
(560,667,o),
(504,716,o),
(419,716,cs),
(204,716,ls),
(87,716,o),
(33,682,o),
(33,608,cs),
(33,542,o),
(78,503,o),
(160,499,cs),
(349,490,ls),
(385,488,o),
(397,481,o),
(397,463,cs),
(397,443,o),
(382,434,o),
(349,434,cs),
(30,434,l),
(30,0,l)
);
},
{
alignment = -1;
pos = (30,142);
ref = _part.cut;
}
);
width = 625;
}
);
unicode = 83;
},
{
color = 5;
glyphname = T;
lastChange = "2023-12-06 00:22:13 +0000";
layers = (
{
anchors = (
{
name = bottom;
pos = (271,0);
},
{
name = center;
pos = (271,358);
},
{
name = top;
pos = (265,716);
}
);
layerId = m01;
shapes = (
{
closed = 1;
nodes = (
(502,0,l),
(502,434,l),
(417,434,ls),
(372,434,o),
(350,455,o),
(350,500,cs),
(350,636,l),
(375,636,ls),
(418,636,o),
(442,610,o),
(442,563,cs),
(442,511,l),
(532,511,l),
(532,716,l),
(10,716,l),
(10,511,l),
(100,511,l),
(100,564,ls),
(100,611,o),
(123,636,o),
(167,636,cs),
(192,636,l),
(192,495,ls),
(192,452,o),
(172,434,o),
(125,434,cs),
(40,434,l),
(40,0,l)
);
},
{
alignment = -1;
pos = (40,142);
ref = _part.cut;
},
{
alignment = -1;
pos = (502,142);
ref = _part.cut;
scale = (-1,1);
}
);
width = 542;
},
{
anchors = (
{
name = bottom;
pos = (271,0);
},
{
name = center;
pos = (271,358);
},
{
name = top;
pos = (265,716);
}
);
associatedMasterId = m01;
attr = {
coordinates = (
50
);
};
layerId = "C252D68D-C1BF-442F-A619-F89038CE35FF";
name = "Dec 5, 23 at 19:21";
shapes = (
{
closed = 1;
nodes = (
(502,0,l),
(502,434,l),
(417,434,ls),
(372,434,o),
(350,455,o),
(350,500,cs),
(350,636,l),
(375,636,ls),
(418,636,o),
(442,610,o),
(442,563,cs),
(442,511,l),
(532,511,l),
(532,716,l),
(10,716,l),
(10,511,l),
(100,511,l),
(100,564,ls),
(100,611,o),
(123,636,o),
(167,636,cs),
(192,636,l),
(192,495,ls),
(192,452,o),
(172,434,o),
(125,434,cs),
(40,434,l),
(40,0,l)
);
},
{
alignment = -1;
pos = (40,142);
ref = _part.cut;
},
{
alignment = -1;
pos = (502,142);
ref = _part.cut;
scale = (-1,1);
}
);
width = 542;
},
{
anchors = (
{
name = bottom;
pos = (271,0);
},
{
name = center;
pos = (271,358);
},
{
name = top;
pos = (265,716);
}
);
associatedMasterId = m01;
attr = {
coordinates = (
100
);
};
layerId = "E8773DDF-7533-4FA7-BC3D-41830FF3D3B8";
name = "Dec 5, 23 at 19:21";
shapes = (
{
closed = 1;
nodes = (
(502,0,l),
(502,434,l),
(417,434,ls),
(372,434,o),
(350,455,o),
(350,500,cs),
(350,636,l),
(375,636,ls),
(418,636,o),
(442,610,o),
(442,563,cs),
(442,511,l),
(532,511,l),
(532,716,l),
(10,716,l),
(10,511,l),
(100,511,l),
(100,564,ls),
(100,611,o),
(123,636,o),
(167,636,cs),
(192,636,l),
(192,495,ls),
(192,452,o),
(172,434,o),
(125,434,cs),
(40,434,l),
(40,0,l)
);
},
{
alignment = -1;
pos = (40,142);
ref = _part.cut;
},
{
alignment = -1;
pos = (502,142);
ref = _part.cut;
scale = (-1,1);
}
);
width = 542;
}
);
unicode = 84;
},
{
color = 5;
glyphname = U;
lastChange = "2023-12-06 01:51:36 +0000";
layers = (
{
anchors = (
{
name = bottom;
pos = (297,-8);
},
{
name = horn;
pos = (658,636);
},
{
name = ogonek;
pos = (354,-8);
},
{
name = top;
pos = (354,716);
}
);
layerId = m01;
shapes = (
{
closed = 1;
nodes = (
(354,-8,ls),
(444,-8,o),
(496,35,o),
(496,110,cs),
(496,172,l),
(532,172,o),
(548,156,o),
(555,113,cs),
(574,0,l),
(658,0,l),
(658,434,l),
(613,434,o),
(591,455,o),
(591,500,cs),
(591,564,ls),
(591,611,o),
(614,636,o),
(658,636,c),
(658,716,l),
(381,716,l),
(381,631,l),
(423,631,o),
(443,609,o),
(443,564,cs),
(443,495,ls),
(443,457,o),
(427,434,o),
(402,434,cs),
(398,434,ls),
(372,434,o),
(358,454,o),
(355,496,c),
(349,496,l),
(346,454,o),
(332,434,o),
(306,434,cs),
(302,434,ls),
(277,434,o),
(261,457,o),
(261,495,cs),
(261,564,ls),
(261,608,o),
(282,631,o),
(323,631,c),
(323,716,l),
(36,716,l),
(36,636,l),
(80,636,o),
(103,611,o),
(103,564,cs),
(103,500,ls),
(103,455,o),
(81,434,o),
(36,434,c),
(36,178,ls),
(36,71,o),
(112,-8,o),
(215,-8,cs)
);
},
{
alignment = -1;
pos = (36,178);
ref = _part.cut;
},
{
alignment = -1;
pos = (658,178);
ref = _part.cut;
scale = (-1,1);
}
);
width = 704;
},
{
anchors = (
{
name = bottom;
pos = (297,-8);
},
{
name = horn;
pos = (658,636);
},
{
name = ogonek;
pos = (354,-8);
},
{
name = top;
pos = (354,716);
}
);
associatedMasterId = m01;
attr = {
coordinates = (
50
);
};
layerId = "1C6F4F26-2000-4461-8106-B781C832D941";
name = "Dec 5, 23 at 19:25";
shapes = (
{
closed = 1;
nodes = (
(354,-8,ls),
(444,-8,o),
(496,35,o),
(496,110,cs),
(496,172,l),
(532,172,o),
(548,156,o),
(555,113,cs),
(574,0,l),
(658,0,l),
(658,434,l),
(613,434,o),
(591,455,o),
(591,500,cs),
(591,564,ls),
(591,611,o),
(614,636,o),
(658,636,c),
(658,716,l),
(381,716,l),
(381,631,l),
(423,631,o),
(443,609,o),
(443,564,cs),
(443,495,ls),
(443,457,o),
(427,434,o),
(402,434,cs),
(398,434,ls),
(372,434,o),
(358,454,o),
(355,496,c),
(349,496,l),
(346,454,o),
(332,434,o),
(306,434,cs),
(302,434,ls),
(277,434,o),
(261,457,o),
(261,495,cs),
(261,564,ls),
(261,608,o),
(282,631,o),
(323,631,c),
(323,716,l),
(36,716,l),
(36,636,l),
(80,636,o),
(103,611,o),
(103,564,cs),
(103,500,ls),
(103,455,o),
(81,434,o),
(36,434,c),
(36,178,ls),
(36,71,o),
(112,-8,o),
(215,-8,cs)
);
},
{
alignment = -1;
pos = (36,178);
ref = _part.cut;
},
{
alignment = -1;
pos = (658,178);
ref = _part.cut;
scale = (-1,1);
}
);
width = 704;
},
{
anchors = (
{
name = bottom;
pos = (297,-8);
},
{
name = horn;
pos = (658,636);
},
{
name = ogonek;
pos = (354,-8);
},
{
name = top;
pos = (354,716);
}
);
associatedMasterId = m01;
attr = {
coordinates = (
100
);
};
layerId = "751BA125-18FE-4A89-A2A0-08F6B3DF3B0B";
name = "Dec 5, 23 at 19:25";
shapes = (
{
closed = 1;
nodes = (
(354,-8,ls),
(444,-8,o),
(496,35,o),
(496,110,cs),
(496,172,l),
(532,172,o),
(548,156,o),
(555,113,cs),
(574,0,l),
(658,0,l),
(658,434,l),
(613,434,o),
(591,455,o),
(591,500,cs),
(591,564,ls),
(591,611,o),
(614,636,o),
(658,636,c),
(658,716,l),
(381,716,l),
(381,631,l),
(423,631,o),
(443,609,o),
(443,564,cs),
(443,495,ls),
(443,457,o),
(427,434,o),
(402,434,cs),
(398,434,ls),
(372,434,o),
(358,454,o),
(355,496,c),
(349,496,l),
(346,454,o),
(332,434,o),
(306,434,cs),
(302,434,ls),
(277,434,o),
(261,457,o),
(261,495,cs),
(261,564,ls),
(261,608,o),
(282,631,o),
(323,631,c),
(323,716,l),
(36,716,l),
(36,636,l),
(80,636,o),
(103,611,o),
(103,564,cs),
(103,500,ls),
(103,455,o),
(81,434,o),
(36,434,c),
(36,178,ls),
(36,71,o),
(112,-8,o),
(215,-8,cs)
);
},
{
alignment = -1;
pos = (36,178);
ref = _part.cut;
},
{
alignment = -1;
pos = (658,178);
ref = _part.cut;
scale = (-1,1);
}
);
width = 704;
}
);
metricRight = H;
unicode = 85;
},
{
color = 5;
glyphname = V;
lastChange = "2023-12-06 01:46:54 +0000";
layers = (
{
anchors = (
{
name = bottom;
pos = (300,0);
},
{
name = top;
pos = (330,716);
}
);
layerId = m01;
shapes = (
{
closed = 1;
nodes = (
(564,433,l),
(476,433,o),
(448,474,o),
(486,543,cs),
(509,584,ls),
(532,624,o),
(553,635,o),
(599,635,c),
(599,715,l),
(375,716,l),
(375,631,l),
(423,631,o),
(441,603,o),
(417,565,cs),
(347,451,l),
(276,564,ls),
(251,604,o),
(268,631,o),
(317,631,c),
(317,716,l),
(0,716,l),
(0,636,l),
(10,636,ls),
(48,636,o),
(83,611,o),
(100,571,cs),
(123,519,ls),
(143,473,o),
(107,434,o),
(44,434,c),
(127,0,l),
(476,0,l)
);
},
{
alignment = -1;
angle = 168.5;
pos = (505,142);
ref = _part.cut;
scale = (1,-1);
},
{
alignment = -1;
angle = 11;
pos = (100,142);
ref = _part.cut;
}
);
width = 599;
},
{
anchors = (
{
name = bottom;
pos = (300,0);
},
{
name = top;
pos = (330,716);
}
);
associatedMasterId = m01;
attr = {
coordinates = (
50
);
};
layerId = "3FF5A873-B7CE-4078-AED8-900A61CB0A3E";
name = "Dec 5, 23 at 20:46";
shapes = (
{
closed = 1;
nodes = (
(564,433,l),
(476,433,o),
(448,474,o),
(486,543,cs),
(509,584,ls),
(532,624,o),
(553,635,o),
(599,635,c),
(599,715,l),
(375,716,l),
(375,631,l),
(423,631,o),
(441,603,o),
(417,565,cs),
(347,451,l),
(276,564,ls),
(251,604,o),
(268,631,o),
(317,631,c),
(317,716,l),
(0,716,l),
(0,636,l),
(10,636,ls),
(48,636,o),
(83,611,o),
(100,571,cs),
(123,519,ls),
(143,473,o),
(107,434,o),
(44,434,c),
(127,0,l),
(476,0,l)
);
},
{
alignment = -1;
angle = 168.5;
pos = (505,142);
ref = _part.cut;
scale = (1,-1);
},
{
alignment = -1;
angle = 11;
pos = (100,142);
ref = _part.cut;
}
);
width = 599;
},
{
anchors = (
{
name = bottom;
pos = (300,0);
},
{
name = top;
pos = (330,716);
}
);
associatedMasterId = m01;
attr = {
coordinates = (
100
);
};
layerId = "A89EE0C6-EED8-4D0A-AE89-482AF037EBC4";
name = "Dec 5, 23 at 20:46";
shapes = (
{
closed = 1;
nodes = (
(564,433,l),
(476,433,o),
(448,474,o),
(486,543,cs),
(509,584,ls),
(532,624,o),
(553,635,o),
(599,635,c),
(599,715,l),
(375,716,l),
(375,631,l),
(423,631,o),
(441,603,o),
(417,565,cs),
(347,451,l),
(276,564,ls),
(251,604,o),
(268,631,o),
(317,631,c),
(317,716,l),
(0,716,l),
(0,636,l),
(10,636,ls),
(48,636,o),
(83,611,o),
(100,571,cs),
(123,519,ls),
(143,473,o),
(107,434,o),
(44,434,c),
(127,0,l),
(476,0,l)
);
},
{
alignment = -1;
angle = 168.5;
pos = (505,142);
ref = _part.cut;
scale = (1,-1);
},
{
alignment = -1;
angle = 11;
pos = (100,142);
ref = _part.cut;
}
);
width = 599;
}
);
unicode = 86;
},
{
color = 5;
glyphname = W;
lastChange = "2023-12-06 01:48:04 +0000";
layers = (
{
anchors = (
{
name = bottom;
pos = (442,0);
},
{
name = top;
pos = (471,715);
}
);
layerId = m01;
shapes = (
{
closed = 1;
nodes = (
(854,433,l),
(811,433,o),
(739,462,o),
(777,538,cs),
(799,582,ls),
(814,613,o),
(836,636,o),
(866,636,cs),
(885,636,l),
(885,716,l),
(669,716,l),
(669,631,l),
(717,631,o),
(726,607,o),
(703,564,cs),
(574,335,l),
(731,336,l),
(600,564,ls),
(573,607,o),
(594,631,o),
(626,631,c),
(626,716,l),
(325,716,l),
(325,636,l),
(374,636,o),
(421,614,o),
(444,574,cs),
(468,533,ls),
(496,485,o),
(518,439,o),
(462,439,c),
(503,0,l),
(790,0,l)
);
},
{
closed = 1;
nodes = (
(403,0,l),
(442,439,l),
(384,439,o),
(407,482,o),
(438,543,cs),
(459,584,ls),
(481,623,o),
(491,636,o),
(538,636,c),
(538,716,l),
(325,716,l),
(325,631,l),
(370,631,o),
(378,607,o),
(355,564,cs),
(222,337,l),
(387,335,l),
(253,564,ls),
(229,607,o),
(248,631,o),
(282,631,c),
(282,716,l),
(0,716,l),
(0,636,l),
(20,636,ls),
(58,636,o),
(78,609,o),
(95,572,cs),
(110,538,ls),
(149,451,o),
(77,434,o),
(34,434,c),
(111,0,l)
);
},
{
alignment = -1;
angle = 171;
pos = (810,142);
ref = _part.cut;
scale = (1,-1);
},
{
alignment = -1;
angle = 10.25;
pos = (86,142);
ref = _part.cut;
}
);
width = 885;
},
{
anchors = (
{
name = bottom;
pos = (442,0);
},
{
name = top;
pos = (471,715);
}
);
associatedMasterId = m01;
attr = {
coordinates = (
50
);
};
layerId = "512062A7-DD81-4073-B458-6E7CE31FC86B";
name = "Dec 5, 23 at 20:47";
shapes = (
{
closed = 1;
nodes = (
(854,433,l),
(811,433,o),
(739,462,o),
(777,538,cs),
(799,582,ls),
(814,613,o),
(836,636,o),
(866,636,cs),
(885,636,l),
(885,716,l),
(669,716,l),
(669,631,l),
(717,631,o),
(726,607,o),
(703,564,cs),
(574,335,l),
(731,336,l),
(600,564,ls),
(573,607,o),
(594,631,o),
(626,631,c),
(626,716,l),
(325,716,l),
(325,636,l),
(374,636,o),
(421,614,o),
(444,574,cs),
(468,533,ls),
(496,485,o),
(518,439,o),
(462,439,c),
(503,0,l),
(790,0,l)
);
},
{
closed = 1;
nodes = (
(403,0,l),
(442,439,l),
(384,439,o),
(407,482,o),
(438,543,cs),
(459,584,ls),
(481,623,o),
(491,636,o),
(538,636,c),
(538,716,l),
(325,716,l),
(325,631,l),
(370,631,o),
(378,607,o),
(355,564,cs),
(222,337,l),
(387,335,l),
(253,564,ls),
(229,607,o),
(248,631,o),
(282,631,c),
(282,716,l),
(0,716,l),
(0,636,l),
(20,636,ls),
(58,636,o),
(78,609,o),
(95,572,cs),
(110,538,ls),
(149,451,o),
(77,434,o),
(34,434,c),
(111,0,l)
);
},
{
alignment = -1;
angle = 171;
pos = (810,142);
ref = _part.cut;
scale = (1,-1);
},
{
alignment = -1;
angle = 10.25;
pos = (86,142);
ref = _part.cut;
}
);
width = 885;
},
{
anchors = (
{
name = bottom;
pos = (442,0);
},
{
name = top;
pos = (471,715);
}
);
associatedMasterId = m01;
attr = {
coordinates = (
100
);
};
layerId = "321AB9E7-E5BB-4CC5-8B1F-30C2EFC16CC4";
name = "Dec 5, 23 at 20:47";
shapes = (
{
closed = 1;
nodes = (
(854,433,l),
(811,433,o),
(739,462,o),
(777,538,cs),
(799,582,ls),
(814,613,o),
(836,636,o),
(866,636,cs),
(885,636,l),
(885,716,l),
(669,716,l),
(669,631,l),
(717,631,o),
(726,607,o),
(703,564,cs),
(574,335,l),
(731,336,l),
(600,564,ls),
(573,607,o),
(594,631,o),
(626,631,c),
(626,716,l),
(325,716,l),
(325,636,l),
(374,636,o),
(421,614,o),
(444,574,cs),
(468,533,ls),
(496,485,o),
(518,439,o),
(462,439,c),
(503,0,l),
(790,0,l)
);
},
{
closed = 1;
nodes = (
(403,0,l),
(442,439,l),
(384,439,o),
(407,482,o),
(438,543,cs),
(459,584,ls),
(481,623,o),
(491,636,o),
(538,636,c),
(538,716,l),
(325,716,l),
(325,631,l),
(370,631,o),
(378,607,o),
(355,564,cs),
(222,337,l),
(387,335,l),
(253,564,ls),
(229,607,o),
(248,631,o),
(282,631,c),
(282,716,l),
(0,716,l),
(0,636,l),
(20,636,ls),
(58,636,o),
(78,609,o),
(95,572,cs),
(110,538,ls),
(149,451,o),
(77,434,o),
(34,434,c),
(111,0,l)
);
},
{
alignment = -1;
angle = 171;
pos = (810,142);
ref = _part.cut;
scale = (1,-1);
},
{
alignment = -1;
angle = 10.25;
pos = (86,142);
ref = _part.cut;
}
);
width = 885;
}
);
metricLeft = V;
metricRight = V;
unicode = 87;
},
{
color = 5;
glyphname = X;
lastChange = "2023-12-06 01:49:04 +0000";
layers = (
{
anchors = (
{
name = bottom;
pos = (347,0);
},
{
name = top;
pos = (357,715);
}
);
background = {
shapes = (
{
closed = 1;
nodes = (
(662,0,l),
(662,434,l),
(643,434,ls),
(629,434,o),
(607,440,o),
(588,451,cs),
(310,614,ls),
(301,619,o),
(301,631,o),
(311,631,cs),
(332,631,l),
(332,716,l),
(31,716,l),
(31,636,l),
(42,636,l),
(64,636,o),
(100,615,o),
(111,608,cs),
(378,452,ls),
(391,444,o),
(385,434,o),
(372,434,cs),
(354,434,l),
(354,0,l)
);
},
{
closed = 1;
nodes = (
(304,0,l),
(304,436,l),
(270,436,ls),
(253,436,o),
(254,450,o),
(267,458,cs),
(380,530,l),
(252,530,l),
(114,447,ls),
(97,437,o),
(69,434,o),
(33,434,c),
(33,0,l)
);
},
{
closed = 1;
nodes = (
(427,540,l),
(565,619,ls),
(583,629,o),
(601,635,o),
(631,636,c),
(645,636,l),
(645,716,l),
(382,716,l),
(382,631,l),
(402,631,ls),
(424,631,o),
(421,615,o),
(407,607,cs),
(286,540,l)
);
}
);
};
layerId = m01;
shapes = (
{
closed = 1;
nodes = (
(294,0,l),
(294,439,l),
(262,439,ls),
(249,439,o),
(246,452,o),
(257,458,cs),
(309,489,l),
(368,459,ls),
(383,451,o),
(382,439,o),
(366,439,cs),
(349,439,l),
(349,0,l),
(666,0,l),
(666,434,l),
(647,434,ls),
(632,434,o),
(610,441,o),
(592,451,cs),
(436,543,l),
(569,619,ls),
(591,631,o),
(610,636,o),
(635,636,cs),
(649,636,l),
(649,716,l),
(392,716,l),
(392,631,l),
(406,631,ls),
(424,631,o),
(429,617,o),
(414,609,cs),
(367,583,l),
(317,612,ls),
(305,619,o),
(305,631,o),
(317,631,cs),
(337,631,l),
(337,716,l),
(27,716,l),
(27,636,l),
(43,636,ls),
(61,636,o),
(80,629,o),
(114,608,cs),
(242,528,l),
(108,447,ls),
(92,438,o),
(69,434,o),
(27,434,c),
(27,0,l)
);
},
{
alignment = -1;
pos = (27,142);
ref = _part.cut;
},
{
alignment = -1;
pos = (666,142);
ref = _part.cut;
scale = (-1,1);
}
);
width = 693;
},
{
anchors = (
{
name = bottom;
pos = (347,0);
},
{
name = top;
pos = (357,715);
}
);
associatedMasterId = m01;
attr = {
coordinates = (
50
);
};
background = {
shapes = (
{
closed = 1;
nodes = (
(662,0,l),
(662,434,l),
(643,434,ls),
(629,434,o),
(607,440,o),
(588,451,cs),
(310,614,ls),
(301,619,o),
(301,631,o),
(311,631,cs),
(332,631,l),
(332,716,l),
(31,716,l),
(31,636,l),
(42,636,l),
(64,636,o),
(100,615,o),
(111,608,cs),
(378,452,ls),
(391,444,o),
(385,434,o),
(372,434,cs),
(354,434,l),
(354,0,l)
);
},
{
closed = 1;
nodes = (
(304,0,l),
(304,436,l),
(270,436,ls),
(253,436,o),
(254,450,o),
(267,458,cs),
(380,530,l),
(252,530,l),
(114,447,ls),
(97,437,o),
(69,434,o),
(33,434,c),
(33,0,l)
);
},
{
closed = 1;
nodes = (
(427,540,l),
(565,619,ls),
(583,629,o),
(601,635,o),
(631,636,c),
(645,636,l),
(645,716,l),
(382,716,l),
(382,631,l),
(402,631,ls),
(424,631,o),
(421,615,o),
(407,607,cs),
(286,540,l)
);
}
);
};
layerId = "8E66FB50-8CD4-4273-BA8A-814C51A52ED7";
name = "Dec 5, 23 at 20:48";
shapes = (
{
closed = 1;
nodes = (
(294,0,l),
(294,439,l),
(262,439,ls),
(249,439,o),
(246,452,o),
(257,458,cs),
(309,489,l),
(368,459,ls),
(383,451,o),
(382,439,o),
(366,439,cs),
(349,439,l),
(349,0,l),
(666,0,l),
(666,434,l),
(647,434,ls),
(632,434,o),
(610,441,o),
(592,451,cs),
(436,543,l),
(569,619,ls),
(591,631,o),
(610,636,o),
(635,636,cs),
(649,636,l),
(649,716,l),
(392,716,l),
(392,631,l),
(406,631,ls),
(424,631,o),
(429,617,o),
(414,609,cs),
(367,583,l),
(317,612,ls),
(305,619,o),
(305,631,o),
(317,631,cs),
(337,631,l),
(337,716,l),
(27,716,l),
(27,636,l),
(43,636,ls),
(61,636,o),
(80,629,o),
(114,608,cs),
(242,528,l),
(108,447,ls),
(92,438,o),
(69,434,o),
(27,434,c),
(27,0,l)
);
},
{
alignment = -1;
pos = (27,142);
ref = _part.cut;
},
{
alignment = -1;
pos = (666,142);
ref = _part.cut;
scale = (-1,1);
}
);
width = 693;
},
{
anchors = (
{
name = bottom;
pos = (347,0);
},
{
name = top;
pos = (357,715);
}
);
associatedMasterId = m01;
attr = {
coordinates = (
100
);
};
background = {
shapes = (
{
closed = 1;
nodes = (
(662,0,l),
(662,434,l),
(643,434,ls),
(629,434,o),
(607,440,o),
(588,451,cs),
(310,614,ls),
(301,619,o),
(301,631,o),
(311,631,cs),
(332,631,l),
(332,716,l),
(31,716,l),
(31,636,l),
(42,636,l),
(64,636,o),
(100,615,o),
(111,608,cs),
(378,452,ls),
(391,444,o),
(385,434,o),
(372,434,cs),
(354,434,l),
(354,0,l)
);
},
{
closed = 1;
nodes = (
(304,0,l),
(304,436,l),
(270,436,ls),
(253,436,o),
(254,450,o),
(267,458,cs),
(380,530,l),
(252,530,l),
(114,447,ls),
(97,437,o),
(69,434,o),
(33,434,c),
(33,0,l)
);
},
{
closed = 1;
nodes = (
(427,540,l),
(565,619,ls),
(583,629,o),
(601,635,o),
(631,636,c),
(645,636,l),
(645,716,l),
(382,716,l),
(382,631,l),
(402,631,ls),
(424,631,o),
(421,615,o),
(407,607,cs),
(286,540,l)
);
}
);
};
layerId = "2EB6A73B-C479-42B4-98E8-F749008C978B";
name = "Dec 5, 23 at 20:48";
shapes = (
{
closed = 1;
nodes = (
(294,0,l),
(294,439,l),
(262,439,ls),
(249,439,o),
(246,452,o),
(257,458,cs),
(309,489,l),
(368,459,ls),
(383,451,o),
(382,439,o),
(366,439,cs),
(349,439,l),
(349,0,l),
(666,0,l),
(666,434,l),
(647,434,ls),
(632,434,o),
(610,441,o),
(592,451,cs),
(436,543,l),
(569,619,ls),
(591,631,o),
(610,636,o),
(635,636,cs),
(649,636,l),
(649,716,l),
(392,716,l),
(392,631,l),
(406,631,ls),
(424,631,o),
(429,617,o),
(414,609,cs),
(367,583,l),
(317,612,ls),
(305,619,o),
(305,631,o),
(317,631,cs),
(337,631,l),
(337,716,l),
(27,716,l),
(27,636,l),
(43,636,ls),
(61,636,o),
(80,629,o),
(114,608,cs),
(242,528,l),
(108,447,ls),
(92,438,o),
(69,434,o),
(27,434,c),
(27,0,l)
);
},
{
alignment = -1;
pos = (27,142);
ref = _part.cut;
},
{
alignment = -1;
pos = (666,142);
ref = _part.cut;
scale = (-1,1);
}
);
width = 693;
}
);
unicode = 88;
},
{
color = 5;
glyphname = Y;
lastChange = "2023-12-06 01:50:02 +0000";
layers = (
{
anchors = (
{
name = bottom;
pos = (345,0);
},
{
name = top;
pos = (325,716);
},
{
name = topleft;
pos = (24,716);
}
);
layerId = m01;
shapes = (
{
closed = 1;
nodes = (
(460,0,ls),
(569,0,o),
(649,79,o),
(649,186,cs),
(649,434,l),
(604,434,o),
(582,455,o),
(582,500,cs),
(582,564,ls),
(582,611,o),
(605,636,o),
(649,636,c),
(649,716,l),
(361,716,l),
(361,631,l),
(400,631,o),
(421,611,o),
(421,575,cs),
(421,565,l),
(262,578,l),
(262,613,o),
(278,631,o),
(308,631,c),
(308,716,l),
(29,716,l),
(29,636,l),
(75,636,o),
(98,613,o),
(98,567,cs),
(98,518,l),
(421,491,l),
(421,488,ls),
(421,462,o),
(391,439,o),
(357,439,cs),
(29,439,l),
(29,0,l)
);
},
{
alignment = -1;
pos = (29,142);
ref = _part.cut;
},
{
alignment = -1;
pos = (649,186);
ref = _part.cut;
scale = (-1,1);
}
);
width = 685;
},
{
anchors = (
{
name = bottom;
pos = (345,0);
},
{
name = top;
pos = (325,716);
},
{
name = topleft;
pos = (24,716);
}
);
associatedMasterId = m01;
attr = {
coordinates = (
50
);
};
layerId = "9017D870-E50C-4110-AC53-165025773D67";
name = "Dec 5, 23 at 20:49";
shapes = (
{
closed = 1;
nodes = (
(460,0,ls),
(569,0,o),
(649,79,o),
(649,186,cs),
(649,434,l),
(604,434,o),
(582,455,o),
(582,500,cs),
(582,564,ls),
(582,611,o),
(605,636,o),
(649,636,c),
(649,716,l),
(361,716,l),
(361,631,l),
(400,631,o),
(421,611,o),
(421,575,cs),
(421,565,l),
(262,578,l),
(262,613,o),
(278,631,o),
(308,631,c),
(308,716,l),
(29,716,l),
(29,636,l),
(75,636,o),
(98,613,o),
(98,567,cs),
(98,518,l),
(421,491,l),
(421,488,ls),
(421,462,o),
(391,439,o),
(357,439,cs),
(29,439,l),
(29,0,l)
);
},
{
alignment = -1;
pos = (29,142);
ref = _part.cut;
},
{
alignment = -1;
pos = (649,186);
ref = _part.cut;
scale = (-1,1);
}
);
width = 685;
},
{
anchors = (
{
name = bottom;
pos = (345,0);
},
{
name = top;
pos = (325,716);
},
{
name = topleft;
pos = (24,716);
}
);
associatedMasterId = m01;
attr = {
coordinates = (
100
);
};
layerId = "5562660D-5630-4CB5-B0C1-1D42B3EDBD0F";
name = "Dec 5, 23 at 20:49";
shapes = (
{
closed = 1;
nodes = (
(460,0,ls),
(569,0,o),
(649,79,o),
(649,186,cs),
(649,434,l),
(604,434,o),
(582,455,o),
(582,500,cs),
(582,564,ls),
(582,611,o),
(605,636,o),
(649,636,c),
(649,716,l),
(361,716,l),
(361,631,l),
(400,631,o),
(421,611,o),
(421,575,cs),
(421,565,l),
(262,578,l),
(262,613,o),
(278,631,o),
(308,631,c),
(308,716,l),
(29,716,l),
(29,636,l),
(75,636,o),
(98,613,o),
(98,567,cs),
(98,518,l),
(421,491,l),
(421,488,ls),
(421,462,o),
(391,439,o),
(357,439,cs),
(29,439,l),
(29,0,l)
);
},
{
alignment = -1;
pos = (29,142);
ref = _part.cut;
},
{
alignment = -1;
pos = (649,186);
ref = _part.cut;
scale = (-1,1);
}
);
width = 685;
}
);
metricRight = J;
unicode = 89;
},
{
color = 5;
glyphname = Z;
lastChange = "2023-12-06 01:51:39 +0000";
layers = (
{
anchors = (
{
name = bottom;
pos = (290,0);
},
{
name = center;
pos = (290,358);
},
{
name = ogonek;
pos = (-43,0);
},
{
name = top;
pos = (291,716);
},
{
name = topright;
pos = (547,716);
}
);
layerId = m01;
shapes = (
{
closed = 1;
nodes = (
(561,0,l),
(561,499,l),
(468,499,l),
(468,458,o),
(449,439,o),
(408,439,cs),
(270,439,l),
(561,642,l),
(561,716,l),
(28,716,l),
(28,569,l),
(122,569,l),
(122,614,o),
(144,636,o),
(191,636,cs),
(318,636,l),
(28,434,l),
(28,0,l)
);
},
{
alignment = -1;
pos = (28,142);
ref = _part.cut;
},
{
alignment = -1;
pos = (561,142);
ref = _part.cut;
scale = (-1,1);
}
);
width = 588;
},
{
anchors = (
{
name = bottom;
pos = (290,0);
},
{
name = center;
pos = (290,358);
},
{
name = ogonek;
pos = (-43,0);
},
{
name = top;
pos = (291,716);
},
{
name = topright;
pos = (547,716);
}
);
associatedMasterId = m01;
attr = {
coordinates = (
50
);
};
layerId = "02A8767D-FA7E-4194-99FA-E9C4D3DEAC99";
name = "Dec 5, 23 at 20:51";
shapes = (
{
closed = 1;
nodes = (
(561,0,l),
(561,499,l),
(468,499,l),
(468,458,o),
(449,439,o),
(408,439,cs),
(270,439,l),
(561,642,l),
(561,716,l),
(28,716,l),
(28,569,l),
(122,569,l),
(122,614,o),
(144,636,o),
(191,636,cs),
(318,636,l),
(28,434,l),
(28,0,l)
);
},
{
alignment = -1;
pos = (28,142);
ref = _part.cut;
},
{
alignment = -1;
pos = (561,142);
ref = _part.cut;
scale = (-1,1);
}
);
width = 588;
},
{
anchors = (
{
name = bottom;
pos = (290,0);
},
{
name = center;
pos = (290,358);
},
{
name = ogonek;
pos = (-43,0);
},
{
name = top;
pos = (291,716);
},
{
name = topright;
pos = (547,716);
}
);
associatedMasterId = m01;
attr = {
coordinates = (
100
);
};
layerId = "05E578F6-BCA9-4C26-BBE7-3345BBECAD8A";
name = "Dec 5, 23 at 20:51";
shapes = (
{
closed = 1;
nodes = (
(561,0,l),
(561,499,l),
(468,499,l),
(468,458,o),
(449,439,o),
(408,439,cs),
(270,439,l),
(561,642,l),
(561,716,l),
(28,716,l),
(28,569,l),
(122,569,l),
(122,614,o),
(144,636,o),
(191,636,cs),
(318,636,l),
(28,434,l),
(28,0,l)
);
},
{
alignment = -1;
pos = (28,142);
ref = _part.cut;
},
{
alignment = -1;
pos = (561,142);
ref = _part.cut;
scale = (-1,1);
}
);
width = 588;
}
);
unicode = 90;
},
{
color = 5;
glyphname = _part.cut;
lastChange = "2023-12-05 22:56:55 +0000";
layers = (
{
layerId = m01;
shapes = (
{
closed = 1;
nodes = (
(0,159,l),
(25,140,o),
(45,117,o),
(45,81,cs),
(45,40,o),
(27,18,o),
(0,0,c)
);
}
